<svg width="32" height="32" viewBox="0 0 32 32" fill="none" xmlns="http://www.w3.org/2000/svg">
<g clip-path="url(#clip0_99_2)">
<path d="M3.3872 6.98183C3.35447 6.85253 3.32829 6.71031 3.30865 6.55516C3.29556 6.40001 3.28902 6.21253 3.28902 5.99274H3.24975V3.64607C3.24975 3.38748 3.17448 3.19354 3.02393 3.06425C2.87994 2.92849 2.6574 2.86061 2.35631 2.86061C2.06177 2.86061 1.82614 2.91556 1.64942 3.02546C1.47924 3.12889 1.37452 3.28081 1.33524 3.48122H0.147269C0.199632 3.02223 0.422172 2.65051 0.814891 2.36606C1.20761 2.08162 1.73451 1.9394 2.39558 1.9394C3.08284 1.9394 3.60319 2.09455 3.95664 2.40485C4.31009 2.70869 4.48681 3.15798 4.48681 3.75273V5.99274C4.48681 6.14789 4.49663 6.30627 4.51626 6.46789C4.54245 6.6295 4.57844 6.80082 4.62426 6.98183H3.3872ZM1.64942 7.0788C1.14543 7.0788 0.742893 6.95597 0.441808 6.71031C0.147269 6.45819 0 6.12203 0 5.70183C0 5.2493 0.166905 4.89051 0.500716 4.62546C0.834527 4.36041 1.30579 4.18263 1.9145 4.09213L3.47556 3.8594V4.63516L2.12068 4.83879C1.82614 4.88405 1.6036 4.96486 1.45306 5.08122C1.30906 5.19758 1.23706 5.3592 1.23706 5.56607C1.23706 5.75354 1.30579 5.899 1.44324 6.00243C1.58069 6.0994 1.77051 6.14789 2.01268 6.14789C2.36613 6.14789 2.66067 6.06061 2.8963 5.88607C3.13193 5.71152 3.24975 5.49819 3.24975 5.24607L3.3872 5.99274C3.25629 6.34829 3.0403 6.61981 2.73921 6.80728C2.44467 6.98829 2.08141 7.0788 1.64942 7.0788Z" fill="#DF9B28"/>
<path d="M5.73975 6.98183V2.03637H6.94736V3.2H6.97682V6.98183H5.73975ZM9.10731 6.98183V3.79152C9.10731 3.50061 9.03204 3.28728 8.8815 3.15152C8.7375 3.0093 8.53133 2.93819 8.26297 2.93819C8.02734 2.93819 7.81134 2.99314 7.61498 3.10303C7.41862 3.21293 7.26154 3.36809 7.14372 3.56849C7.03245 3.76889 6.97682 4.00162 6.97682 4.26667L6.84918 3.13213C7.01936 2.7701 7.26481 2.48243 7.58553 2.26909C7.90625 2.0493 8.27933 1.9394 8.70478 1.9394C9.21531 1.9394 9.61785 2.08485 9.91239 2.37576C10.2069 2.66021 10.3542 3.02869 10.3542 3.48122V6.98183H9.10731ZM12.4749 6.98183V3.79152C12.4749 3.50061 12.4029 3.28728 12.2589 3.15152C12.1149 3.0093 11.9087 2.93819 11.6403 2.93819C11.3982 2.93819 11.1789 2.99314 10.9825 3.10303C10.7862 3.21293 10.6324 3.36809 10.5211 3.56849C10.4098 3.76889 10.3542 4.00162 10.3542 4.26667L10.1382 3.13213C10.3018 2.7701 10.5506 2.48243 10.8844 2.26909C11.2182 2.0493 11.6043 1.9394 12.0429 1.9394C12.5665 1.9394 12.9756 2.08808 13.2701 2.38546C13.5712 2.67637 13.7218 3.06425 13.7218 3.5491V6.98183H12.4749Z" fill="#DF9B28"/>
<path d="M17.8395 7.0788C17.3617 7.0788 16.9689 6.9689 16.6613 6.7491C16.3602 6.52284 16.1737 6.21253 16.1017 5.81819L16.1901 5.80849V6.98183H14.9824V0H16.2195V3.15152L16.1311 3.13213C16.2162 2.76364 16.4159 2.47273 16.73 2.2594C17.0508 2.04606 17.4468 1.9394 17.918 1.9394C18.3631 1.9394 18.7493 2.04606 19.0765 2.2594C19.4103 2.46627 19.6689 2.76041 19.8522 3.14182C20.0354 3.52324 20.1271 3.97253 20.1271 4.4897C20.1271 5.01334 20.0322 5.4691 19.8423 5.85698C19.6525 6.24486 19.3874 6.54546 19.0471 6.7588C18.7067 6.97213 18.3042 7.0788 17.8395 7.0788ZM17.5253 6.07031C17.9246 6.07031 18.242 5.93455 18.4776 5.66304C18.7133 5.38506 18.8311 4.99718 18.8311 4.4994C18.8311 4.00162 18.71 3.61697 18.4678 3.34546C18.2322 3.07394 17.9147 2.93819 17.5155 2.93819C17.1228 2.93819 16.8053 3.07718 16.5631 3.35516C16.321 3.62667 16.1999 4.01132 16.1999 4.5091C16.1999 5.00688 16.321 5.39152 16.5631 5.66304C16.8053 5.93455 17.126 6.07031 17.5253 6.07031Z" fill="#DF9B28"/>
<path d="M23.3958 7.0788C22.8656 7.0788 22.4009 6.9689 22.0016 6.7491C21.6089 6.5293 21.3013 6.22546 21.0787 5.83758C20.8627 5.4497 20.7547 5.00364 20.7547 4.4994C20.7547 3.99516 20.8627 3.55233 21.0787 3.17091C21.3013 2.78303 21.6089 2.48243 22.0016 2.26909C22.3943 2.0493 22.8525 1.9394 23.3761 1.9394C23.8736 1.9394 24.3056 2.04283 24.6721 2.2497C25.0386 2.4501 25.3233 2.73455 25.5262 3.10303C25.7292 3.47152 25.8306 3.90142 25.8306 4.39273C25.8306 4.48324 25.8273 4.56728 25.8208 4.64485C25.8142 4.72243 25.8044 4.80001 25.7913 4.87758H21.5205V4.02425H24.839L24.5837 4.25698C24.5837 3.79152 24.4757 3.44243 24.2597 3.2097C24.0437 2.97697 23.7427 2.86061 23.3565 2.86061C22.9376 2.86061 22.6038 3.00283 22.355 3.28728C22.1129 3.57172 21.9918 3.98223 21.9918 4.51879C21.9918 5.0489 22.1129 5.45617 22.355 5.74061C22.6038 6.01859 22.9539 6.15758 23.4056 6.15758C23.6674 6.15758 23.8965 6.1091 24.0928 6.01213C24.2892 5.91516 24.4332 5.76647 24.5248 5.56607H25.6932C25.5295 6.03152 25.2513 6.40001 24.8586 6.67152C24.4725 6.94304 23.9848 7.0788 23.3958 7.0788Z" fill="#DF9B28"/>
<path d="M26.7563 6.98183V2.03637H27.9639V3.2291H27.9934V6.98183H26.7563ZM27.9934 4.40243L27.8658 3.2291C27.9836 2.80889 28.1832 2.48889 28.4647 2.26909C28.7461 2.0493 29.0832 1.9394 29.4759 1.9394C29.6134 1.9394 29.7115 1.95233 29.7704 1.97818V3.13213C29.7377 3.1192 29.6919 3.11273 29.633 3.11273C29.5741 3.10627 29.5021 3.10303 29.417 3.10303C28.9392 3.10303 28.5825 3.20647 28.3468 3.41334C28.1112 3.62021 27.9934 3.9499 27.9934 4.40243Z" fill="#DF9B28"/>
<path d="M3.3872 14.2546C3.35447 14.1253 3.32829 13.983 3.30865 13.8279C3.29556 13.6727 3.28902 13.4853 3.28902 13.2655H3.24975V10.9188C3.24975 10.6602 3.17448 10.4663 3.02393 10.337C2.87994 10.2012 2.6574 10.1333 2.35631 10.1333C2.06177 10.1333 1.82614 10.1883 1.64942 10.2982C1.47924 10.4016 1.37452 10.5536 1.33524 10.754H0.147269C0.199632 10.295 0.422172 9.92325 0.814891 9.6388C1.20761 9.35436 1.73451 9.21213 2.39558 9.21213C3.08284 9.21213 3.60319 9.36729 3.95664 9.67759C4.31009 9.98143 4.48681 10.4307 4.48681 11.0255V13.2655C4.48681 13.4206 4.49663 13.579 4.51626 13.7406C4.54245 13.9022 4.57844 14.0736 4.62426 14.2546H3.3872ZM1.64942 14.3515C1.14543 14.3515 0.742893 14.2287 0.441808 13.983C0.147269 13.7309 0 13.3948 0 12.9746C0 12.522 0.166905 12.1632 0.500716 11.8982C0.834527 11.6331 1.30579 11.4554 1.9145 11.3649L3.47556 11.1321V11.9079L2.12068 12.1115C1.82614 12.1568 1.6036 12.2376 1.45306 12.354C1.30906 12.4703 1.23706 12.6319 1.23706 12.8388C1.23706 13.0263 1.30579 13.1717 1.44324 13.2752C1.58069 13.3721 1.77051 13.4206 2.01268 13.4206C2.36613 13.4206 2.66067 13.3334 2.8963 13.1588C3.13193 12.9843 3.24975 12.7709 3.24975 12.5188L3.3872 13.2655C3.25629 13.621 3.0403 13.8925 2.73921 14.08C2.44467 14.261 2.08141 14.3515 1.64942 14.3515Z" fill="#DF9B28"/>
<path d="M5.73975 14.2546V9.3091H6.94736V10.4727H6.97682V14.2546H5.73975ZM9.10731 14.2546V11.0643C9.10731 10.7733 9.03204 10.56 8.8815 10.4243C8.7375 10.282 8.53133 10.2109 8.26297 10.2109C8.02734 10.2109 7.81134 10.2659 7.61498 10.3758C7.41862 10.4857 7.26154 10.6408 7.14372 10.8412C7.03245 11.0416 6.97682 11.2744 6.97682 11.5394L6.84918 10.4049C7.01936 10.0428 7.26481 9.75517 7.58553 9.54183C7.90625 9.32203 8.27933 9.21213 8.70478 9.21213C9.21531 9.21213 9.61785 9.35759 9.91239 9.6485C10.2069 9.93294 10.3542 10.3014 10.3542 10.754V14.2546H9.10731ZM12.4749 14.2546V11.0643C12.4749 10.7733 12.4029 10.56 12.2589 10.4243C12.1149 10.282 11.9087 10.2109 11.6403 10.2109C11.3982 10.2109 11.1789 10.2659 10.9825 10.3758C10.7862 10.4857 10.6324 10.6408 10.5211 10.8412C10.4098 11.0416 10.3542 11.2744 10.3542 11.5394L10.1382 10.4049C10.3018 10.0428 10.5506 9.75517 10.8844 9.54183C11.2182 9.32203 11.6043 9.21213 12.0429 9.21213C12.5665 9.21213 12.9756 9.36082 13.2701 9.6582C13.5712 9.9491 13.7218 10.337 13.7218 10.8218V14.2546H12.4749Z" fill="#DF9B28"/>
<path d="M17.8395 14.3515C17.3617 14.3515 16.9689 14.2416 16.6613 14.0218C16.3602 13.7956 16.1737 13.4853 16.1017 13.0909L16.1901 13.0812V14.2546H14.9824V7.27274H16.2195V10.4243L16.1311 10.4049C16.2162 10.0364 16.4159 9.74547 16.73 9.53213C17.0508 9.3188 17.4468 9.21213 17.918 9.21213C18.3631 9.21213 18.7493 9.3188 19.0765 9.53213C19.4103 9.739 19.6689 10.0331 19.8522 10.4146C20.0354 10.796 20.1271 11.2453 20.1271 11.7624C20.1271 12.2861 20.0322 12.7418 19.8423 13.1297C19.6525 13.5176 19.3874 13.8182 19.0471 14.0315C18.7067 14.2449 18.3042 14.3515 17.8395 14.3515ZM17.5253 13.343C17.9246 13.343 18.242 13.2073 18.4776 12.9358C18.7133 12.6578 18.8311 12.2699 18.8311 11.7721C18.8311 11.2744 18.71 10.8897 18.4678 10.6182C18.2322 10.3467 17.9147 10.2109 17.5155 10.2109C17.1228 10.2109 16.8053 10.3499 16.5631 10.6279C16.321 10.8994 16.1999 11.2841 16.1999 11.7818C16.1999 12.2796 16.321 12.6643 16.5631 12.9358C16.8053 13.2073 17.126 13.343 17.5253 13.343Z" fill="#DF9B28"/>
<path d="M23.3958 14.3515C22.8656 14.3515 22.4009 14.2416 22.0016 14.0218C21.6089 13.802 21.3013 13.4982 21.0787 13.1103C20.8627 12.7224 20.7547 12.2764 20.7547 11.7721C20.7547 11.2679 20.8627 10.8251 21.0787 10.4437C21.3013 10.0558 21.6089 9.75517 22.0016 9.54183C22.3943 9.32203 22.8525 9.21213 23.3761 9.21213C23.8736 9.21213 24.3056 9.31557 24.6721 9.52244C25.0386 9.72284 25.3233 10.0073 25.5262 10.3758C25.7292 10.7443 25.8306 11.1742 25.8306 11.6655C25.8306 11.756 25.8273 11.84 25.8208 11.9176C25.8142 11.9952 25.8044 12.0727 25.7913 12.1503H21.5205V11.297H24.839L24.5837 11.5297C24.5837 11.0643 24.4757 10.7152 24.2597 10.4824C24.0437 10.2497 23.7427 10.1333 23.3565 10.1333C22.9376 10.1333 22.6038 10.2756 22.355 10.56C22.1129 10.8445 21.9918 11.255 21.9918 11.7915C21.9918 12.3216 22.1129 12.7289 22.355 13.0134C22.6038 13.2913 22.9539 13.4303 23.4056 13.4303C23.6674 13.4303 23.8965 13.3818 24.0928 13.2849C24.2892 13.1879 24.4332 13.0392 24.5248 12.8388H25.6932C25.5295 13.3043 25.2513 13.6727 24.8586 13.9443C24.4725 14.2158 23.9848 14.3515 23.3958 14.3515Z" fill="#DF9B28"/>
<path d="M26.7563 14.2546V9.3091H27.9639V10.5018H27.9934V14.2546H26.7563ZM27.9934 11.6752L27.8658 10.5018C27.9836 10.0816 28.1832 9.76163 28.4647 9.54183C28.7461 9.32203 29.0832 9.21213 29.4759 9.21213C29.6134 9.21213 29.7115 9.22506 29.7704 9.25092V10.4049C29.7377 10.3919 29.6919 10.3855 29.633 10.3855C29.5741 10.379 29.5021 10.3758 29.417 10.3758C28.9392 10.3758 28.5825 10.4792 28.3468 10.6861C28.1112 10.8929 27.9934 11.2226 27.9934 11.6752Z" fill="#DF9B28"/>
<path d="M3.3872 21.5273C3.35447 21.398 3.32829 21.2558 3.30865 21.1006C3.29556 20.9455 3.28902 20.758 3.28902 20.5382H3.24975V18.1915C3.24975 17.933 3.17448 17.739 3.02393 17.6097C2.87994 17.474 2.6574 17.4061 2.35631 17.4061C2.06177 17.4061 1.82614 17.461 1.64942 17.5709C1.47924 17.6744 1.37452 17.8263 1.33524 18.0267H0.147269C0.199632 17.5677 0.422172 17.196 0.814891 16.9115C1.20761 16.6271 1.73451 16.4849 2.39558 16.4849C3.08284 16.4849 3.60319 16.64 3.95664 16.9503C4.31009 17.2542 4.48681 17.7035 4.48681 18.2982V20.5382C4.48681 20.6934 4.49663 20.8517 4.51626 21.0134C4.54245 21.175 4.57844 21.3463 4.62426 21.5273H3.3872ZM1.64942 21.6243C1.14543 21.6243 0.742893 21.5014 0.441808 21.2558C0.147269 21.0037 0 20.6675 0 20.2473C0 19.7948 0.166905 19.436 0.500716 19.1709C0.834527 18.9059 1.30579 18.7281 1.9145 18.6376L3.47556 18.4049V19.1806L2.12068 19.3843C1.82614 19.4295 1.6036 19.5103 1.45306 19.6267C1.30906 19.7431 1.23706 19.9047 1.23706 20.1115C1.23706 20.299 1.30579 20.4445 1.44324 20.5479C1.58069 20.6449 1.77051 20.6934 2.01268 20.6934C2.36613 20.6934 2.66067 20.6061 2.8963 20.4315C3.13193 20.257 3.24975 20.0437 3.24975 19.7915L3.3872 20.5382C3.25629 20.8938 3.0403 21.1653 2.73921 21.3528C2.44467 21.5338 2.08141 21.6243 1.64942 21.6243Z" fill="#DF9B28"/>
<path d="M5.73975 21.5273V16.5818H6.94736V17.7455H6.97682V21.5273H5.73975ZM9.10731 21.5273V18.337C9.10731 18.0461 9.03204 17.8328 8.8815 17.697C8.7375 17.5548 8.53133 17.4837 8.26297 17.4837C8.02734 17.4837 7.81134 17.5386 7.61498 17.6485C7.41862 17.7584 7.26154 17.9136 7.14372 18.114C7.03245 18.3144 6.97682 18.5471 6.97682 18.8121L6.84918 17.6776C7.01936 17.3156 7.26481 17.0279 7.58553 16.8146C7.90625 16.5948 8.27933 16.4849 8.70478 16.4849C9.21531 16.4849 9.61785 16.6303 9.91239 16.9212C10.2069 17.2057 10.3542 17.5742 10.3542 18.0267V21.5273H9.10731ZM12.4749 21.5273V18.337C12.4749 18.0461 12.4029 17.8328 12.2589 17.697C12.1149 17.5548 11.9087 17.4837 11.6403 17.4837C11.3982 17.4837 11.1789 17.5386 10.9825 17.6485C10.7862 17.7584 10.6324 17.9136 10.5211 18.114C10.4098 18.3144 10.3542 18.5471 10.3542 18.8121L10.1382 17.6776C10.3018 17.3156 10.5506 17.0279 10.8844 16.8146C11.2182 16.5948 11.6043 16.4849 12.0429 16.4849C12.5665 16.4849 12.9756 16.6336 13.2701 16.9309C13.5712 17.2218 13.7218 17.6097 13.7218 18.0946V21.5273H12.4749Z" fill="#DF9B28"/>
<path d="M17.8395 21.6243C17.3617 21.6243 16.9689 21.5144 16.6613 21.2946C16.3602 21.0683 16.1737 20.758 16.1017 20.3637L16.1901 20.354V21.5273H14.9824V14.5455H16.2195V17.697L16.1311 17.6776C16.2162 17.3091 16.4159 17.0182 16.73 16.8049C17.0508 16.5915 17.4468 16.4849 17.918 16.4849C18.3631 16.4849 18.7493 16.5915 19.0765 16.8049C19.4103 17.0117 19.6689 17.3059 19.8522 17.6873C20.0354 18.0687 20.1271 18.518 20.1271 19.0352C20.1271 19.5588 20.0322 20.0146 19.8423 20.4025C19.6525 20.7903 19.3874 21.0909 19.0471 21.3043C18.7067 21.5176 18.3042 21.6243 17.8395 21.6243ZM17.5253 20.6158C17.9246 20.6158 18.242 20.48 18.4776 20.2085C18.7133 19.9305 18.8311 19.5427 18.8311 19.0449C18.8311 18.5471 18.71 18.1625 18.4678 17.8909C18.2322 17.6194 17.9147 17.4837 17.5155 17.4837C17.1228 17.4837 16.8053 17.6227 16.5631 17.9006C16.321 18.1721 16.1999 18.5568 16.1999 19.0546C16.1999 19.5524 16.321 19.937 16.5631 20.2085C16.8053 20.48 17.126 20.6158 17.5253 20.6158Z" fill="#DF9B28"/>
<path d="M23.3958 21.6243C22.8656 21.6243 22.4009 21.5144 22.0016 21.2946C21.6089 21.0748 21.3013 20.7709 21.0787 20.3831C20.8627 19.9952 20.7547 19.5491 20.7547 19.0449C20.7547 18.5406 20.8627 18.0978 21.0787 17.7164C21.3013 17.3285 21.6089 17.0279 22.0016 16.8146C22.3943 16.5948 22.8525 16.4849 23.3761 16.4849C23.8736 16.4849 24.3056 16.5883 24.6721 16.7952C25.0386 16.9956 25.3233 17.28 25.5262 17.6485C25.7292 18.017 25.8306 18.4469 25.8306 18.9382C25.8306 19.0287 25.8273 19.1128 25.8208 19.1903C25.8142 19.2679 25.8044 19.3455 25.7913 19.4231H21.5205V18.5697H24.839L24.5837 18.8024C24.5837 18.337 24.4757 17.9879 24.2597 17.7552C24.0437 17.5224 23.7427 17.4061 23.3565 17.4061C22.9376 17.4061 22.6038 17.5483 22.355 17.8328C22.1129 18.1172 21.9918 18.5277 21.9918 19.0643C21.9918 19.5944 22.1129 20.0016 22.355 20.2861C22.6038 20.5641 22.9539 20.7031 23.4056 20.7031C23.6674 20.7031 23.8965 20.6546 24.0928 20.5576C24.2892 20.4606 24.4332 20.3119 24.5248 20.1115H25.6932C25.5295 20.577 25.2513 20.9455 24.8586 21.217C24.4725 21.4885 23.9848 21.6243 23.3958 21.6243Z" fill="#DF9B28"/>
<path d="M26.7563 21.5273V16.5818H27.9639V17.7746H27.9934V21.5273H26.7563ZM27.9934 18.9479L27.8658 17.7746C27.9836 17.3544 28.1832 17.0344 28.4647 16.8146C28.7461 16.5948 29.0832 16.4849 29.4759 16.4849C29.6134 16.4849 29.7115 16.4978 29.7704 16.5237V17.6776C29.7377 17.6647 29.6919 17.6582 29.633 17.6582C29.5741 17.6517 29.5021 17.6485 29.417 17.6485C28.9392 17.6485 28.5825 17.7519 28.3468 17.9588C28.1112 18.1657 27.9934 18.4954 27.9934 18.9479Z" fill="#DF9B28"/>
<path d="M3.3872 28.8C3.35447 28.6707 3.32829 28.5285 3.30865 28.3734C3.29556 28.2182 3.28902 28.0307 3.28902 27.8109H3.24975V25.4643C3.24975 25.2057 3.17448 25.0118 3.02393 24.8825C2.87994 24.7467 2.6574 24.6788 2.35631 24.6788C2.06177 24.6788 1.82614 24.7338 1.64942 24.8437C1.47924 24.9471 1.37452 25.099 1.33524 25.2994H0.147269C0.199632 24.8404 0.422172 24.4687 0.814891 24.1843C1.20761 23.8998 1.73451 23.7576 2.39558 23.7576C3.08284 23.7576 3.60319 23.9128 3.95664 24.2231C4.31009 24.5269 4.48681 24.9762 4.48681 25.5709V27.8109C4.48681 27.9661 4.49663 28.1245 4.51626 28.2861C4.54245 28.4477 4.57844 28.619 4.62426 28.8H3.3872ZM1.64942 28.897C1.14543 28.897 0.742893 28.7742 0.441808 28.5285C0.147269 28.2764 0 27.9402 0 27.52C0 27.0675 0.166905 26.7087 0.500716 26.4437C0.834527 26.1786 1.30579 26.0008 1.9145 25.9103L3.47556 25.6776V26.4534L2.12068 26.657C1.82614 26.7023 1.6036 26.7831 1.45306 26.8994C1.30906 27.0158 1.23706 27.1774 1.23706 27.3843C1.23706 27.5718 1.30579 27.7172 1.44324 27.8206C1.58069 27.9176 1.77051 27.9661 2.01268 27.9661C2.36613 27.9661 2.66067 27.8788 2.8963 27.7043C3.13193 27.5297 3.24975 27.3164 3.24975 27.0643L3.3872 27.8109C3.25629 28.1665 3.0403 28.438 2.73921 28.6255C2.44467 28.8065 2.08141 28.897 1.64942 28.897Z" fill="#DF9B28"/>
<path d="M5.73975 28.8V23.8546H6.94736V25.0182H6.97682V28.8H5.73975ZM9.10731 28.8V25.6097C9.10731 25.3188 9.03204 25.1055 8.8815 24.9697C8.7375 24.8275 8.53133 24.7564 8.26297 24.7564C8.02734 24.7564 7.81134 24.8113 7.61498 24.9212C7.41862 25.0311 7.26154 25.1863 7.14372 25.3867C7.03245 25.5871 6.97682 25.8198 6.97682 26.0849L6.84918 24.9503C7.01936 24.5883 7.26481 24.3006 7.58553 24.0873C7.90625 23.8675 8.27933 23.7576 8.70478 23.7576C9.21531 23.7576 9.61785 23.9031 9.91239 24.194C10.2069 24.4784 10.3542 24.8469 10.3542 25.2994V28.8H9.10731ZM12.4749 28.8V25.6097C12.4749 25.3188 12.4029 25.1055 12.2589 24.9697C12.1149 24.8275 11.9087 24.7564 11.6403 24.7564C11.3982 24.7564 11.1789 24.8113 10.9825 24.9212C10.7862 25.0311 10.6324 25.1863 10.5211 25.3867C10.4098 25.5871 10.3542 25.8198 10.3542 26.0849L10.1382 24.9503C10.3018 24.5883 10.5506 24.3006 10.8844 24.0873C11.2182 23.8675 11.6043 23.7576 12.0429 23.7576C12.5665 23.7576 12.9756 23.9063 13.2701 24.2037C13.5712 24.4946 13.7218 24.8825 13.7218 25.3673V28.8H12.4749Z" fill="#DF9B28"/>
<path d="M17.8395 28.897C17.3617 28.897 16.9689 28.7871 16.6613 28.5673C16.3602 28.3411 16.1737 28.0307 16.1017 27.6364L16.1901 27.6267V28.8H14.9824V21.8182H16.2195V24.9697L16.1311 24.9503C16.2162 24.5819 16.4159 24.2909 16.73 24.0776C17.0508 23.8643 17.4468 23.7576 17.918 23.7576C18.3631 23.7576 18.7493 23.8643 19.0765 24.0776C19.4103 24.2845 19.6689 24.5786 19.8522 24.96C20.0354 25.3414 20.1271 25.7907 20.1271 26.3079C20.1271 26.8316 20.0322 27.2873 19.8423 27.6752C19.6525 28.0631 19.3874 28.3637 19.0471 28.577C18.7067 28.7903 18.3042 28.897 17.8395 28.897ZM17.5253 27.8885C17.9246 27.8885 18.242 27.7528 18.4776 27.4813C18.7133 27.2033 18.8311 26.8154 18.8311 26.3176C18.8311 25.8198 18.71 25.4352 18.4678 25.1637C18.2322 24.8922 17.9147 24.7564 17.5155 24.7564C17.1228 24.7564 16.8053 24.8954 16.5631 25.1734C16.321 25.4449 16.1999 25.8295 16.1999 26.3273C16.1999 26.8251 16.321 27.2097 16.5631 27.4813C16.8053 27.7528 17.126 27.8885 17.5253 27.8885Z" fill="#DF9B28"/>
<path d="M23.3958 28.897C22.8656 28.897 22.4009 28.7871 22.0016 28.5673C21.6089 28.3475 21.3013 28.0437 21.0787 27.6558C20.8627 27.2679 20.7547 26.8219 20.7547 26.3176C20.7547 25.8134 20.8627 25.3705 21.0787 24.9891C21.3013 24.6012 21.6089 24.3006 22.0016 24.0873C22.3943 23.8675 22.8525 23.7576 23.3761 23.7576C23.8736 23.7576 24.3056 23.861 24.6721 24.0679C25.0386 24.2683 25.3233 24.5528 25.5262 24.9212C25.7292 25.2897 25.8306 25.7196 25.8306 26.2109C25.8306 26.3015 25.8273 26.3855 25.8208 26.4631C25.8142 26.5406 25.8044 26.6182 25.7913 26.6958H21.5205V25.8425H24.839L24.5837 26.0752C24.5837 25.6097 24.4757 25.2606 24.2597 25.0279C24.0437 24.7952 23.7427 24.6788 23.3565 24.6788C22.9376 24.6788 22.6038 24.821 22.355 25.1055C22.1129 25.3899 21.9918 25.8004 21.9918 26.337C21.9918 26.8671 22.1129 27.2744 22.355 27.5588C22.6038 27.8368 22.9539 27.9758 23.4056 27.9758C23.6674 27.9758 23.8965 27.9273 24.0928 27.8303C24.2892 27.7334 24.4332 27.5847 24.5248 27.3843H25.6932C25.5295 27.8497 25.2513 28.2182 24.8586 28.4897C24.4725 28.7613 23.9848 28.897 23.3958 28.897Z" fill="#DF9B28"/>
<path d="M26.7563 28.8V23.8546H27.9639V25.0473H27.9934V28.8H26.7563ZM27.9934 26.2206L27.8658 25.0473C27.9836 24.6271 28.1832 24.3071 28.4647 24.0873C28.7461 23.8675 29.0832 23.7576 29.4759 23.7576C29.6134 23.7576 29.7115 23.7705 29.7704 23.7964V24.9503C29.7377 24.9374 29.6919 24.9309 29.633 24.9309C29.5741 24.9245 29.5021 24.9212 29.417 24.9212C28.9392 24.9212 28.5825 25.0247 28.3468 25.2316C28.1112 25.4384 27.9934 25.7681 27.9934 26.2206Z" fill="#DF9B28"/>
<path d="M4.65316 8.14542C4.62043 8.01613 4.59425 7.8739 4.57461 7.71875C4.56152 7.5636 4.55498 7.37612 4.55498 7.15633H4.5157V4.80966C4.5157 4.55107 4.44043 4.35713 4.28989 4.22784C4.14589 4.09208 3.92335 4.0242 3.62227 4.0242C3.32773 4.0242 3.0921 4.07915 2.91537 4.18905C2.7452 4.29248 2.64047 4.4444 2.6012 4.64481H1.41323C1.46559 4.18582 1.68813 3.8141 2.08085 3.52965C2.47357 3.24521 3.00046 3.10299 3.66154 3.10299C4.3488 3.10299 4.86915 3.25814 5.2226 3.56844C5.57604 3.87228 5.75277 4.32158 5.75277 4.91632V7.15633C5.75277 7.31148 5.76258 7.46986 5.78222 7.63148C5.8084 7.79309 5.8444 7.96441 5.89022 8.14542H4.65316ZM2.91537 8.24239C2.41139 8.24239 2.00885 8.11956 1.70777 7.8739C1.41323 7.62178 1.26596 7.28562 1.26596 6.86542C1.26596 6.41289 1.43286 6.0541 1.76667 5.78905C2.10048 5.524 2.57175 5.34622 3.18046 5.25572L4.74152 5.02299V5.79875L3.38664 6.00239C3.0921 6.04764 2.86956 6.12845 2.71902 6.24481C2.57502 6.36117 2.50302 6.52279 2.50302 6.72966C2.50302 6.91713 2.57175 7.06259 2.7092 7.16602C2.84665 7.26299 3.03646 7.31148 3.27864 7.31148C3.63209 7.31148 3.92663 7.22421 4.16226 7.04966C4.39789 6.87511 4.5157 6.66178 4.5157 6.40966L4.65316 7.15633C4.52225 7.51188 4.30625 7.7834 4.00517 7.97087C3.71063 8.15188 3.34737 8.24239 2.91537 8.24239Z" fill="#11F8DD"/>
<path d="M7.00571 8.14542V3.19996H8.21332V4.3636H8.24277V8.14542H7.00571ZM10.3733 8.14542V4.95511C10.3733 4.6642 10.298 4.45087 10.1475 4.31511C10.0035 4.17289 9.79728 4.10178 9.52893 4.10178C9.29329 4.10178 9.0773 4.15673 8.88094 4.26663C8.68458 4.37652 8.52749 4.53168 8.40968 4.73208C8.29841 4.93249 8.24277 5.16521 8.24277 5.43026L8.11514 4.29572C8.28532 3.9337 8.53077 3.64602 8.85149 3.43268C9.17221 3.21289 9.54529 3.10299 9.97073 3.10299C10.4813 3.10299 10.8838 3.24844 11.1783 3.53935C11.4729 3.8238 11.6202 4.19228 11.6202 4.64481V8.14542H10.3733ZM13.7408 8.14542V4.95511C13.7408 4.6642 13.6688 4.45087 13.5248 4.31511C13.3808 4.17289 13.1747 4.10178 12.9063 4.10178C12.6641 4.10178 12.4449 4.15673 12.2485 4.26663C12.0521 4.37652 11.8983 4.53168 11.7871 4.73208C11.6758 4.93249 11.6202 5.16521 11.6202 5.43026L11.4042 4.29572C11.5678 3.9337 11.8165 3.64602 12.1503 3.43268C12.4841 3.21289 12.8703 3.10299 13.3088 3.10299C13.8325 3.10299 14.2415 3.25167 14.5361 3.54905C14.8372 3.83996 14.9877 4.22784 14.9877 4.71269V8.14542H13.7408Z" fill="#11F8DD"/>
<path d="M19.1054 8.24239C18.6276 8.24239 18.2349 8.13249 17.9273 7.91269C17.6262 7.68643 17.4396 7.37612 17.3677 6.98178L17.456 6.97208V8.14542H16.2484V1.16359H17.4855V4.31511L17.3971 4.29572C17.4822 3.92723 17.6818 3.63632 17.996 3.42299C18.3167 3.20965 18.7127 3.10299 19.184 3.10299C19.6291 3.10299 20.0152 3.20965 20.3425 3.42299C20.6763 3.62986 20.9348 3.924 21.1181 4.30541C21.3014 4.68683 21.393 5.13612 21.393 5.65329C21.393 6.17693 21.2981 6.63269 21.1083 7.02057C20.9185 7.40845 20.6534 7.70905 20.313 7.92239C19.9727 8.13572 19.5701 8.24239 19.1054 8.24239ZM18.7913 7.2339C19.1905 7.2339 19.508 7.09814 19.7436 6.82663C19.9792 6.54865 20.097 6.16077 20.097 5.66299C20.097 5.16521 19.976 4.78057 19.7338 4.50905C19.4981 4.23753 19.1807 4.10178 18.7814 4.10178C18.3887 4.10178 18.0713 4.24077 17.8291 4.51875C17.5869 4.79026 17.4658 5.17491 17.4658 5.67269C17.4658 6.17047 17.5869 6.55511 17.8291 6.82663C18.0713 7.09814 18.392 7.2339 18.7913 7.2339Z" fill="#11F8DD"/>
<path d="M24.6617 8.24239C24.1315 8.24239 23.6668 8.13249 23.2676 7.91269C22.8748 7.69289 22.5672 7.38905 22.3447 7.00117C22.1287 6.6133 22.0207 6.16723 22.0207 5.66299C22.0207 5.15875 22.1287 4.71592 22.3447 4.3345C22.5672 3.94663 22.8748 3.64602 23.2676 3.43268C23.6603 3.21289 24.1184 3.10299 24.6421 3.10299C25.1395 3.10299 25.5715 3.20642 25.938 3.41329C26.3046 3.6137 26.5893 3.89814 26.7922 4.26663C26.9951 4.63511 27.0966 5.06501 27.0966 5.55632C27.0966 5.64683 27.0933 5.73087 27.0867 5.80845C27.0802 5.88602 27.0704 5.9636 27.0573 6.04117H22.7865V5.18784H26.105L25.8497 5.42057C25.8497 4.95511 25.7417 4.60602 25.5257 4.37329C25.3097 4.14056 25.0086 4.0242 24.6224 4.0242C24.2035 4.0242 23.8697 4.16642 23.621 4.45087C23.3788 4.73531 23.2577 5.14582 23.2577 5.68239C23.2577 6.21249 23.3788 6.61976 23.621 6.9042C23.8697 7.18218 24.2199 7.32118 24.6715 7.32118C24.9333 7.32118 25.1624 7.27269 25.3588 7.17572C25.5551 7.07875 25.6991 6.93006 25.7908 6.72966H26.9591C26.7955 7.19511 26.5173 7.5636 26.1246 7.83512C25.7384 8.10663 25.2508 8.24239 24.6617 8.24239Z" fill="#11F8DD"/>
<path d="M28.0223 8.14542V3.19996H29.2299V4.39269H29.2594V8.14542H28.0223ZM29.2594 5.56602L29.1317 4.39269C29.2495 3.97248 29.4492 3.65248 29.7306 3.43268C30.0121 3.21289 30.3491 3.10299 30.7419 3.10299C30.8793 3.10299 30.9775 3.11592 31.0364 3.14178V4.29572C31.0037 4.28279 30.9579 4.27632 30.899 4.27632C30.84 4.26986 30.768 4.26663 30.683 4.26663C30.2052 4.26663 29.8484 4.37006 29.6128 4.57693C29.3772 4.7838 29.2594 5.1135 29.2594 5.56602Z" fill="#11F8DD"/>
<path d="M4.65316 15.4182C4.62043 15.2889 4.59425 15.1466 4.57461 14.9915C4.56152 14.8363 4.55498 14.6489 4.55498 14.4291H4.5157V12.0824C4.5157 11.8238 4.44043 11.6299 4.28989 11.5006C4.14589 11.3648 3.92335 11.2969 3.62227 11.2969C3.32773 11.2969 3.0921 11.3519 2.91537 11.4618C2.7452 11.5652 2.64047 11.7171 2.6012 11.9175H1.41323C1.46559 11.4586 1.68813 11.0868 2.08085 10.8024C2.47357 10.5179 3.00046 10.3757 3.66154 10.3757C4.3488 10.3757 4.86915 10.5309 5.2226 10.8412C5.57604 11.145 5.75277 11.5943 5.75277 12.1891V14.4291C5.75277 14.5842 5.76258 14.7426 5.78222 14.9042C5.8084 15.0658 5.8444 15.2371 5.89022 15.4182H4.65316ZM2.91537 15.5151C2.41139 15.5151 2.00885 15.3923 1.70777 15.1466C1.41323 14.8945 1.26596 14.5584 1.26596 14.1382C1.26596 13.6856 1.43286 13.3268 1.76667 13.0618C2.10048 12.7967 2.57175 12.619 3.18046 12.5285L4.74152 12.2957V13.0715L3.38664 13.2751C3.0921 13.3204 2.86956 13.4012 2.71902 13.5175C2.57502 13.6339 2.50302 13.7955 2.50302 14.0024C2.50302 14.1899 2.57175 14.3353 2.7092 14.4388C2.84665 14.5357 3.03646 14.5842 3.27864 14.5842C3.63209 14.5842 3.92663 14.4969 4.16226 14.3224C4.39789 14.1479 4.5157 13.9345 4.5157 13.6824L4.65316 14.4291C4.52225 14.7846 4.30625 15.0561 4.00517 15.2436C3.71063 15.4246 3.34737 15.5151 2.91537 15.5151Z" fill="#11F8DD"/>
<path d="M7.00571 15.4182V10.4727H8.21332V11.6363H8.24277V15.4182H7.00571ZM10.3733 15.4182V12.2278C10.3733 11.9369 10.298 11.7236 10.1475 11.5878C10.0035 11.4456 9.79728 11.3745 9.52893 11.3745C9.29329 11.3745 9.0773 11.4295 8.88094 11.5394C8.68458 11.6493 8.52749 11.8044 8.40968 12.0048C8.29841 12.2052 8.24277 12.438 8.24277 12.703L8.11514 11.5685C8.28532 11.2064 8.53077 10.9188 8.85149 10.7054C9.17221 10.4856 9.54529 10.3757 9.97073 10.3757C10.4813 10.3757 10.8838 10.5212 11.1783 10.8121C11.4729 11.0965 11.6202 11.465 11.6202 11.9175V15.4182H10.3733ZM13.7408 15.4182V12.2278C13.7408 11.9369 13.6688 11.7236 13.5248 11.5878C13.3808 11.4456 13.1747 11.3745 12.9063 11.3745C12.6641 11.3745 12.4449 11.4295 12.2485 11.5394C12.0521 11.6493 11.8983 11.8044 11.7871 12.0048C11.6758 12.2052 11.6202 12.438 11.6202 12.703L11.4042 11.5685C11.5678 11.2064 11.8165 10.9188 12.1503 10.7054C12.4841 10.4856 12.8703 10.3757 13.3088 10.3757C13.8325 10.3757 14.2415 10.5244 14.5361 10.8218C14.8372 11.1127 14.9877 11.5006 14.9877 11.9854V15.4182H13.7408Z" fill="#11F8DD"/>
<path d="M19.1054 15.5151C18.6276 15.5151 18.2349 15.4052 17.9273 15.1854C17.6262 14.9592 17.4396 14.6489 17.3677 14.2545L17.456 14.2448V15.4182H16.2484V8.43633H17.4855V11.5878L17.3971 11.5685C17.4822 11.2 17.6818 10.9091 17.996 10.6957C18.3167 10.4824 18.7127 10.3757 19.184 10.3757C19.6291 10.3757 20.0152 10.4824 20.3425 10.6957C20.6763 10.9026 20.9348 11.1967 21.1181 11.5782C21.3014 11.9596 21.393 12.4089 21.393 12.926C21.393 13.4497 21.2981 13.9054 21.1083 14.2933C20.9185 14.6812 20.6534 14.9818 20.313 15.1951C19.9727 15.4085 19.5701 15.5151 19.1054 15.5151ZM18.7913 14.5066C19.1905 14.5066 19.508 14.3709 19.7436 14.0994C19.9792 13.8214 20.097 13.4335 20.097 12.9357C20.097 12.438 19.976 12.0533 19.7338 11.7818C19.4981 11.5103 19.1807 11.3745 18.7814 11.3745C18.3887 11.3745 18.0713 11.5135 17.8291 11.7915C17.5869 12.063 17.4658 12.4476 17.4658 12.9454C17.4658 13.4432 17.5869 13.8279 17.8291 14.0994C18.0713 14.3709 18.392 14.5066 18.7913 14.5066Z" fill="#11F8DD"/>
<path d="M24.6617 15.5151C24.1315 15.5151 23.6668 15.4052 23.2676 15.1854C22.8748 14.9656 22.5672 14.6618 22.3447 14.2739C22.1287 13.886 22.0207 13.44 22.0207 12.9357C22.0207 12.4315 22.1287 11.9887 22.3447 11.6072C22.5672 11.2194 22.8748 10.9188 23.2676 10.7054C23.6603 10.4856 24.1184 10.3757 24.6421 10.3757C25.1395 10.3757 25.5715 10.4792 25.938 10.686C26.3046 10.8864 26.5893 11.1709 26.7922 11.5394C26.9951 11.9078 27.0966 12.3377 27.0966 12.8291C27.0966 12.9196 27.0933 13.0036 27.0867 13.0812C27.0802 13.1588 27.0704 13.2363 27.0573 13.3139H22.7865V12.4606H26.105L25.8497 12.6933C25.8497 12.2278 25.7417 11.8788 25.5257 11.646C25.3097 11.4133 25.0086 11.2969 24.6224 11.2969C24.2035 11.2969 23.8697 11.4392 23.621 11.7236C23.3788 12.0081 23.2577 12.4186 23.2577 12.9551C23.2577 13.4852 23.3788 13.8925 23.621 14.1769C23.8697 14.4549 24.2199 14.5939 24.6715 14.5939C24.9333 14.5939 25.1624 14.5454 25.3588 14.4485C25.5551 14.3515 25.6991 14.2028 25.7908 14.0024H26.9591C26.7955 14.4679 26.5173 14.8363 26.1246 15.1079C25.7384 15.3794 25.2508 15.5151 24.6617 15.5151Z" fill="#11F8DD"/>
<path d="M28.0223 15.4182V10.4727H29.2299V11.6654H29.2594V15.4182H28.0223ZM29.2594 12.8388L29.1317 11.6654C29.2495 11.2452 29.4492 10.9252 29.7306 10.7054C30.0121 10.4856 30.3491 10.3757 30.7419 10.3757C30.8793 10.3757 30.9775 10.3887 31.0364 10.4145V11.5685C31.0037 11.5555 30.9579 11.5491 30.899 11.5491C30.84 11.5426 30.768 11.5394 30.683 11.5394C30.2052 11.5394 29.8484 11.6428 29.6128 11.8497C29.3772 12.0565 29.2594 12.3862 29.2594 12.8388Z" fill="#11F8DD"/>
<path d="M4.65316 22.6909C4.62043 22.5616 4.59425 22.4194 4.57461 22.2642C4.56152 22.1091 4.55498 21.9216 4.55498 21.7018H4.5157V19.3551C4.5157 19.0965 4.44043 18.9026 4.28989 18.7733C4.14589 18.6376 3.92335 18.5697 3.62227 18.5697C3.32773 18.5697 3.0921 18.6246 2.91537 18.7345C2.7452 18.838 2.64047 18.9899 2.6012 19.1903H1.41323C1.46559 18.7313 1.68813 18.3596 2.08085 18.0751C2.47357 17.7907 3.00046 17.6485 3.66154 17.6485C4.3488 17.6485 4.86915 17.8036 5.2226 18.1139C5.57604 18.4178 5.75277 18.8671 5.75277 19.4618V21.7018C5.75277 21.857 5.76258 22.0153 5.78222 22.177C5.8084 22.3386 5.8444 22.5099 5.89022 22.6909H4.65316ZM2.91537 22.7879C2.41139 22.7879 2.00885 22.665 1.70777 22.4194C1.41323 22.1673 1.26596 21.8311 1.26596 21.4109C1.26596 20.9584 1.43286 20.5996 1.76667 20.3345C2.10048 20.0695 2.57175 19.8917 3.18046 19.8012L4.74152 19.5685V20.3442L3.38664 20.5479C3.0921 20.5931 2.86956 20.6739 2.71902 20.7903C2.57502 20.9066 2.50302 21.0683 2.50302 21.2751C2.50302 21.4626 2.57175 21.6081 2.7092 21.7115C2.84665 21.8085 3.03646 21.857 3.27864 21.857C3.63209 21.857 3.92663 21.7697 4.16226 21.5951C4.39789 21.4206 4.5157 21.2073 4.5157 20.9551L4.65316 21.7018C4.52225 22.0574 4.30625 22.3289 4.00517 22.5163C3.71063 22.6974 3.34737 22.7879 2.91537 22.7879Z" fill="#11F8DD"/>
<path d="M7.00571 22.6909V17.7454H8.21332V18.9091H8.24277V22.6909H7.00571ZM10.3733 22.6909V19.5006C10.3733 19.2097 10.298 18.9963 10.1475 18.8606C10.0035 18.7184 9.79728 18.6473 9.52893 18.6473C9.29329 18.6473 9.0773 18.7022 8.88094 18.8121C8.68458 18.922 8.52749 19.0772 8.40968 19.2776C8.29841 19.478 8.24277 19.7107 8.24277 19.9757L8.11514 18.8412C8.28532 18.4792 8.53077 18.1915 8.85149 17.9782C9.17221 17.7584 9.54529 17.6485 9.97073 17.6485C10.4813 17.6485 10.8838 17.7939 11.1783 18.0848C11.4729 18.3693 11.6202 18.7378 11.6202 19.1903V22.6909H10.3733ZM13.7408 22.6909V19.5006C13.7408 19.2097 13.6688 18.9963 13.5248 18.8606C13.3808 18.7184 13.1747 18.6473 12.9063 18.6473C12.6641 18.6473 12.4449 18.7022 12.2485 18.8121C12.0521 18.922 11.8983 19.0772 11.7871 19.2776C11.6758 19.478 11.6202 19.7107 11.6202 19.9757L11.4042 18.8412C11.5678 18.4792 11.8165 18.1915 12.1503 17.9782C12.4841 17.7584 12.8703 17.6485 13.3088 17.6485C13.8325 17.6485 14.2415 17.7971 14.5361 18.0945C14.8372 18.3854 14.9877 18.7733 14.9877 19.2582V22.6909H13.7408Z" fill="#11F8DD"/>
<path d="M19.1054 22.7879C18.6276 22.7879 18.2349 22.678 17.9273 22.4582C17.6262 22.2319 17.4396 21.9216 17.3677 21.5273L17.456 21.5176V22.6909H16.2484V15.7091H17.4855V18.8606L17.3971 18.8412C17.4822 18.4727 17.6818 18.1818 17.996 17.9685C18.3167 17.7551 18.7127 17.6485 19.184 17.6485C19.6291 17.6485 20.0152 17.7551 20.3425 17.9685C20.6763 18.1753 20.9348 18.4695 21.1181 18.8509C21.3014 19.2323 21.393 19.6816 21.393 20.1988C21.393 20.7224 21.2981 21.1782 21.1083 21.566C20.9185 21.9539 20.6534 22.2545 20.313 22.4679C19.9727 22.6812 19.5701 22.7879 19.1054 22.7879ZM18.7913 21.7794C19.1905 21.7794 19.508 21.6436 19.7436 21.3721C19.9792 21.0941 20.097 20.7062 20.097 20.2085C20.097 19.7107 19.976 19.326 19.7338 19.0545C19.4981 18.783 19.1807 18.6473 18.7814 18.6473C18.3887 18.6473 18.0713 18.7862 17.8291 19.0642C17.5869 19.3357 17.4658 19.7204 17.4658 20.2182C17.4658 20.7159 17.5869 21.1006 17.8291 21.3721C18.0713 21.6436 18.392 21.7794 18.7913 21.7794Z" fill="#11F8DD"/>
<path d="M24.6617 22.7879C24.1315 22.7879 23.6668 22.678 23.2676 22.4582C22.8748 22.2384 22.5672 21.9345 22.3447 21.5466C22.1287 21.1588 22.0207 20.7127 22.0207 20.2085C22.0207 19.7042 22.1287 19.2614 22.3447 18.88C22.5672 18.4921 22.8748 18.1915 23.2676 17.9782C23.6603 17.7584 24.1184 17.6485 24.6421 17.6485C25.1395 17.6485 25.5715 17.7519 25.938 17.9588C26.3046 18.1592 26.5893 18.4436 26.7922 18.8121C26.9951 19.1806 27.0966 19.6105 27.0966 20.1018C27.0966 20.1923 27.0933 20.2763 27.0867 20.3539C27.0802 20.4315 27.0704 20.5091 27.0573 20.5866H22.7865V19.7333H26.105L25.8497 19.966C25.8497 19.5006 25.7417 19.1515 25.5257 18.9188C25.3097 18.686 25.0086 18.5697 24.6224 18.5697C24.2035 18.5697 23.8697 18.7119 23.621 18.9963C23.3788 19.2808 23.2577 19.6913 23.2577 20.2279C23.2577 20.758 23.3788 21.1652 23.621 21.4497C23.8697 21.7277 24.2199 21.8666 24.6715 21.8666C24.9333 21.8666 25.1624 21.8182 25.3588 21.7212C25.5551 21.6242 25.6991 21.4755 25.7908 21.2751H26.9591C26.7955 21.7406 26.5173 22.1091 26.1246 22.3806C25.7384 22.6521 25.2508 22.7879 24.6617 22.7879Z" fill="#11F8DD"/>
<path d="M28.0223 22.6909V17.7454H29.2299V18.9382H29.2594V22.6909H28.0223ZM29.2594 20.1115L29.1317 18.9382C29.2495 18.518 29.4492 18.198 29.7306 17.9782C30.0121 17.7584 30.3491 17.6485 30.7419 17.6485C30.8793 17.6485 30.9775 17.6614 31.0364 17.6873V18.8412C31.0037 18.8283 30.9579 18.8218 30.899 18.8218C30.84 18.8153 30.768 18.8121 30.683 18.8121C30.2052 18.8121 29.8484 18.9155 29.6128 19.1224C29.3772 19.3293 29.2594 19.659 29.2594 20.1115Z" fill="#11F8DD"/>
<path d="M4.65316 29.9636C4.62043 29.8343 4.59425 29.6921 4.57461 29.537C4.56152 29.3818 4.55498 29.1943 4.55498 28.9745H4.5157V26.6279C4.5157 26.3693 4.44043 26.1753 4.28989 26.046C4.14589 25.9103 3.92335 25.8424 3.62227 25.8424C3.32773 25.8424 3.0921 25.8974 2.91537 26.0073C2.7452 26.1107 2.64047 26.2626 2.6012 26.463H1.41323C1.46559 26.004 1.68813 25.6323 2.08085 25.3479C2.47357 25.0634 3.00046 24.9212 3.66154 24.9212C4.3488 24.9212 4.86915 25.0764 5.2226 25.3867C5.57604 25.6905 5.75277 26.1398 5.75277 26.7345V28.9745C5.75277 29.1297 5.76258 29.2881 5.78222 29.4497C5.8084 29.6113 5.8444 29.7826 5.89022 29.9636H4.65316ZM2.91537 30.0606C2.41139 30.0606 2.00885 29.9378 1.70777 29.6921C1.41323 29.44 1.26596 29.1038 1.26596 28.6836C1.26596 28.2311 1.43286 27.8723 1.76667 27.6073C2.10048 27.3422 2.57175 27.1644 3.18046 27.0739L4.74152 26.8412V27.617L3.38664 27.8206C3.0921 27.8658 2.86956 27.9467 2.71902 28.063C2.57502 28.1794 2.50302 28.341 2.50302 28.5479C2.50302 28.7353 2.57175 28.8808 2.7092 28.9842C2.84665 29.0812 3.03646 29.1297 3.27864 29.1297C3.63209 29.1297 3.92663 29.0424 4.16226 28.8679C4.39789 28.6933 4.5157 28.48 4.5157 28.2279L4.65316 28.9745C4.52225 29.3301 4.30625 29.6016 4.00517 29.7891C3.71063 29.9701 3.34737 30.0606 2.91537 30.0606Z" fill="#11F8DD"/>
<path d="M7.00571 29.9636V25.0182H8.21332V26.1818H8.24277V29.9636H7.00571ZM10.3733 29.9636V26.7733C10.3733 26.4824 10.298 26.2691 10.1475 26.1333C10.0035 25.9911 9.79728 25.92 9.52893 25.92C9.29329 25.92 9.0773 25.9749 8.88094 26.0848C8.68458 26.1947 8.52749 26.3499 8.40968 26.5503C8.29841 26.7507 8.24277 26.9834 8.24277 27.2485L8.11514 26.1139C8.28532 25.7519 8.53077 25.4642 8.85149 25.2509C9.17221 25.0311 9.54529 24.9212 9.97073 24.9212C10.4813 24.9212 10.8838 25.0667 11.1783 25.3576C11.4729 25.642 11.6202 26.0105 11.6202 26.463V29.9636H10.3733ZM13.7408 29.9636V26.7733C13.7408 26.4824 13.6688 26.2691 13.5248 26.1333C13.3808 25.9911 13.1747 25.92 12.9063 25.92C12.6641 25.92 12.4449 25.9749 12.2485 26.0848C12.0521 26.1947 11.8983 26.3499 11.7871 26.5503C11.6758 26.7507 11.6202 26.9834 11.6202 27.2485L11.4042 26.1139C11.5678 25.7519 11.8165 25.4642 12.1503 25.2509C12.4841 25.0311 12.8703 24.9212 13.3088 24.9212C13.8325 24.9212 14.2415 25.0699 14.5361 25.3673C14.8372 25.6582 14.9877 26.046 14.9877 26.5309V29.9636H13.7408Z" fill="#11F8DD"/>
<path d="M19.1054 30.0606C18.6276 30.0606 18.2349 29.9507 17.9273 29.7309C17.6262 29.5046 17.4396 29.1943 17.3677 28.8L17.456 28.7903V29.9636H16.2484V22.9818H17.4855V26.1333L17.3971 26.1139C17.4822 25.7454 17.6818 25.4545 17.996 25.2412C18.3167 25.0279 18.7127 24.9212 19.184 24.9212C19.6291 24.9212 20.0152 25.0279 20.3425 25.2412C20.6763 25.4481 20.9348 25.7422 21.1181 26.1236C21.3014 26.505 21.393 26.9543 21.393 27.4715C21.393 27.9951 21.2981 28.4509 21.1083 28.8388C20.9185 29.2267 20.6534 29.5273 20.313 29.7406C19.9727 29.9539 19.5701 30.0606 19.1054 30.0606ZM18.7913 29.0521C19.1905 29.0521 19.508 28.9164 19.7436 28.6448C19.9792 28.3669 20.097 27.979 20.097 27.4812C20.097 26.9834 19.976 26.5988 19.7338 26.3273C19.4981 26.0557 19.1807 25.92 18.7814 25.92C18.3887 25.92 18.0713 26.059 17.8291 26.337C17.5869 26.6085 17.4658 26.9931 17.4658 27.4909C17.4658 27.9887 17.5869 28.3733 17.8291 28.6448C18.0713 28.9164 18.392 29.0521 18.7913 29.0521Z" fill="#11F8DD"/>
<path d="M24.6617 30.0606C24.1315 30.0606 23.6668 29.9507 23.2676 29.7309C22.8748 29.5111 22.5672 29.2073 22.3447 28.8194C22.1287 28.4315 22.0207 27.9854 22.0207 27.4812C22.0207 26.977 22.1287 26.5341 22.3447 26.1527C22.5672 25.7648 22.8748 25.4642 23.2676 25.2509C23.6603 25.0311 24.1184 24.9212 24.6421 24.9212C25.1395 24.9212 25.5715 25.0246 25.938 25.2315C26.3046 25.4319 26.5893 25.7164 26.7922 26.0848C26.9951 26.4533 27.0966 26.8832 27.0966 27.3745C27.0966 27.465 27.0933 27.5491 27.0867 27.6267C27.0802 27.7042 27.0704 27.7818 27.0573 27.8594H22.7865V27.0061H26.105L25.8497 27.2388C25.8497 26.7733 25.7417 26.4242 25.5257 26.1915C25.3097 25.9588 25.0086 25.8424 24.6224 25.8424C24.2035 25.8424 23.8697 25.9846 23.621 26.2691C23.3788 26.5535 23.2577 26.964 23.2577 27.5006C23.2577 28.0307 23.3788 28.438 23.621 28.7224C23.8697 29.0004 24.2199 29.1394 24.6715 29.1394C24.9333 29.1394 25.1624 29.0909 25.3588 28.9939C25.5551 28.897 25.6991 28.7483 25.7908 28.5479H26.9591C26.7955 29.0133 26.5173 29.3818 26.1246 29.6533C25.7384 29.9248 25.2508 30.0606 24.6617 30.0606Z" fill="#11F8DD"/>
<path d="M28.0223 29.9636V25.0182H29.2299V26.2109H29.2594V29.9636H28.0223ZM29.2594 27.3842L29.1317 26.2109C29.2495 25.7907 29.4492 25.4707 29.7306 25.2509C30.0121 25.0311 30.3491 24.9212 30.7419 24.9212C30.8793 24.9212 30.9775 24.9341 31.0364 24.96V26.1139C31.0037 26.101 30.9579 26.0945 30.899 26.0945C30.84 26.0881 30.768 26.0848 30.683 26.0848C30.2052 26.0848 29.8484 26.1883 29.6128 26.3951C29.3772 26.602 29.2594 26.9317 29.2594 27.3842Z" fill="#11F8DD"/>
<path d="M6.61675 10.0848C6.58402 9.95552 6.55784 9.8133 6.5382 9.65815C6.52511 9.503 6.51857 9.31552 6.51857 9.09572H6.4793V6.74905C6.4793 6.49047 6.40403 6.29653 6.25348 6.16723C6.10949 6.03148 5.88695 5.9636 5.58586 5.9636C5.29132 5.9636 5.05569 6.01855 4.87897 6.12845C4.70879 6.23188 4.60407 6.3838 4.56479 6.5842H3.37682C3.42918 6.12521 3.65172 5.7535 4.04444 5.46905C4.43716 5.18461 4.96406 5.04238 5.62513 5.04238C6.31239 5.04238 6.83274 5.19754 7.18619 5.50784C7.53964 5.81168 7.71636 6.26097 7.71636 6.85572V9.09572C7.71636 9.25087 7.72618 9.40926 7.74581 9.57088C7.772 9.73249 7.80799 9.90381 7.85381 10.0848H6.61675ZM4.87897 10.1818C4.37498 10.1818 3.97244 10.059 3.67136 9.8133C3.37682 9.56118 3.22955 9.22502 3.22955 8.80481C3.22955 8.35229 3.39646 7.9935 3.73027 7.72845C4.06408 7.4634 4.53534 7.28562 5.14405 7.19511L6.70511 6.96239V7.73815L5.35023 7.94178C5.05569 7.98703 4.83315 8.06784 4.68261 8.18421C4.53861 8.30057 4.46661 8.46219 4.46661 8.66906C4.46661 8.85653 4.53534 9.00199 4.67279 9.10542C4.81024 9.20239 5.00006 9.25087 5.24223 9.25087C5.59568 9.25087 5.89022 9.1636 6.12585 8.98906C6.36148 8.81451 6.4793 8.60118 6.4793 8.34905L6.61675 9.09572C6.48584 9.45128 6.26985 9.72279 5.96876 9.91027C5.67422 10.0913 5.31096 10.1818 4.87897 10.1818Z" fill="#15E68F"/>
<path d="M8.9693 10.0848V5.13935H10.1769V6.30299H10.2064V10.0848H8.9693ZM12.3369 10.0848V6.89451C12.3369 6.6036 12.2616 6.39026 12.1111 6.25451C11.9671 6.11228 11.7609 6.04117 11.4925 6.04117C11.2569 6.04117 11.0409 6.09612 10.8445 6.20602C10.6482 6.31592 10.4911 6.47107 10.3733 6.67148C10.262 6.87188 10.2064 7.10461 10.2064 7.36966L10.0787 6.23511C10.2489 5.87309 10.4944 5.58542 10.8151 5.37208C11.1358 5.15228 11.5089 5.04238 11.9343 5.04238C12.4449 5.04238 12.8474 5.18784 13.1419 5.47875C13.4365 5.76319 13.5837 6.13168 13.5837 6.5842V10.0848H12.3369ZM15.7044 10.0848V6.89451C15.7044 6.6036 15.6324 6.39026 15.4884 6.25451C15.3444 6.11228 15.1383 6.04117 14.8699 6.04117C14.6277 6.04117 14.4085 6.09612 14.2121 6.20602C14.0157 6.31592 13.8619 6.47107 13.7507 6.67148C13.6394 6.87188 13.5837 7.10461 13.5837 7.36966L13.3677 6.23511C13.5314 5.87309 13.7801 5.58542 14.1139 5.37208C14.4477 5.15228 14.8339 5.04238 15.2724 5.04238C15.7961 5.04238 16.2051 5.19107 16.4997 5.48845C16.8008 5.77935 16.9513 6.16723 16.9513 6.65208V10.0848H15.7044Z" fill="#15E68F"/>
<path d="M21.069 10.1818C20.5912 10.1818 20.1985 10.0719 19.8909 9.85209C19.5898 9.62583 19.4032 9.31552 19.3312 8.92118L19.4196 8.91148V10.0848H18.212V3.10299H19.4491V6.25451L19.3607 6.23511C19.4458 5.86663 19.6454 5.57572 19.9596 5.36238C20.2803 5.14905 20.6763 5.04238 21.1476 5.04238C21.5926 5.04238 21.9788 5.14905 22.3061 5.36238C22.6399 5.56925 22.8984 5.86339 23.0817 6.24481C23.265 6.62622 23.3566 7.07552 23.3566 7.59269C23.3566 8.11633 23.2617 8.57209 23.0719 8.95997C22.8821 9.34785 22.617 9.64845 22.2766 9.86178C21.9363 10.0751 21.5337 10.1818 21.069 10.1818ZM20.7548 9.1733C21.1541 9.1733 21.4716 9.03754 21.7072 8.76603C21.9428 8.48805 22.0606 8.10017 22.0606 7.60239C22.0606 7.10461 21.9395 6.71996 21.6974 6.44845C21.4617 6.17693 21.1443 6.04117 20.745 6.04117C20.3523 6.04117 20.0349 6.18016 19.7927 6.45814C19.5505 6.72966 19.4294 7.11431 19.4294 7.61208C19.4294 8.10986 19.5505 8.49451 19.7927 8.76603C20.0349 9.03754 20.3556 9.1733 20.7548 9.1733Z" fill="#15E68F"/>
<path d="M26.6253 10.1818C26.0951 10.1818 25.6304 10.0719 25.2311 9.85209C24.8384 9.63229 24.5308 9.32845 24.3083 8.94057C24.0923 8.55269 23.9843 8.10663 23.9843 7.60239C23.9843 7.09814 24.0923 6.65532 24.3083 6.2739C24.5308 5.88602 24.8384 5.58542 25.2311 5.37208C25.6239 5.15228 26.082 5.04238 26.6057 5.04238C27.1031 5.04238 27.5351 5.14582 27.9016 5.35269C28.2682 5.55309 28.5529 5.83754 28.7558 6.20602C28.9587 6.57451 29.0602 7.00441 29.0602 7.49572C29.0602 7.58623 29.0569 7.67027 29.0503 7.74784C29.0438 7.82542 29.034 7.90299 29.0209 7.98057H24.7501V7.12724H28.0685L27.8133 7.35996C27.8133 6.89451 27.7053 6.54542 27.4893 6.31269C27.2733 6.07996 26.9722 5.9636 26.586 5.9636C26.1671 5.9636 25.8333 6.10582 25.5846 6.39026C25.3424 6.67471 25.2213 7.08522 25.2213 7.62178C25.2213 8.15188 25.3424 8.55916 25.5846 8.8436C25.8333 9.12158 26.1835 9.26057 26.6351 9.26057C26.8969 9.26057 27.126 9.21209 27.3224 9.11512C27.5187 9.01815 27.6627 8.86946 27.7544 8.66906H28.9227C28.7591 9.13451 28.4809 9.503 28.0882 9.77451C27.702 10.046 27.2144 10.1818 26.6253 10.1818Z" fill="#15E68F"/>
<path d="M29.9859 10.0848V5.13935H31.1935V6.33208H31.2229V10.0848H29.9859ZM31.2229 7.50542L31.0953 6.33208C31.2131 5.91188 31.4128 5.59188 31.6942 5.37208C31.9757 5.15228 32.3127 5.04238 32.7055 5.04238C32.8429 5.04238 32.9411 5.05531 33 5.08117V6.23511C32.9673 6.22218 32.9215 6.21572 32.8625 6.21572C32.8036 6.20925 32.7316 6.20602 32.6466 6.20602C32.1687 6.20602 31.812 6.30946 31.5764 6.51633C31.3408 6.72319 31.2229 7.05289 31.2229 7.50542Z" fill="#15E68F"/>
<path d="M6.61675 17.3576C6.58402 17.2283 6.55784 17.086 6.5382 16.9309C6.52511 16.7757 6.51857 16.5883 6.51857 16.3685H6.4793V14.0218C6.4793 13.7632 6.40403 13.5693 6.25348 13.44C6.10949 13.3042 5.88695 13.2363 5.58586 13.2363C5.29132 13.2363 5.05569 13.2913 4.87897 13.4012C4.70879 13.5046 4.60407 13.6565 4.56479 13.8569H3.37682C3.42918 13.398 3.65172 13.0262 4.04444 12.7418C4.43716 12.4573 4.96406 12.3151 5.62513 12.3151C6.31239 12.3151 6.83274 12.4703 7.18619 12.7806C7.53964 13.0844 7.71636 13.5337 7.71636 14.1285V16.3685C7.71636 16.5236 7.72618 16.682 7.74581 16.8436C7.772 17.0052 7.80799 17.1765 7.85381 17.3576H6.61675ZM4.87897 17.4545C4.37498 17.4545 3.97244 17.3317 3.67136 17.086C3.37682 16.8339 3.22955 16.4978 3.22955 16.0776C3.22955 15.625 3.39646 15.2662 3.73027 15.0012C4.06408 14.7361 4.53534 14.5584 5.14405 14.4679L6.70511 14.2351V15.0109L5.35023 15.2145C5.05569 15.2598 4.83315 15.3406 4.68261 15.4569C4.53861 15.5733 4.46661 15.7349 4.46661 15.9418C4.46661 16.1293 4.53534 16.2747 4.67279 16.3782C4.81024 16.4751 5.00006 16.5236 5.24223 16.5236C5.59568 16.5236 5.89022 16.4363 6.12585 16.2618C6.36148 16.0872 6.4793 15.8739 6.4793 15.6218L6.61675 16.3685C6.48584 16.724 6.26985 16.9955 5.96876 17.183C5.67422 17.364 5.31096 17.4545 4.87897 17.4545Z" fill="#15E68F"/>
<path d="M8.9693 17.3576V12.4121H10.1769V13.5757H10.2064V17.3576H8.9693ZM12.3369 17.3576V14.1672C12.3369 13.8763 12.2616 13.663 12.1111 13.5272C11.9671 13.385 11.7609 13.3139 11.4925 13.3139C11.2569 13.3139 11.0409 13.3689 10.8445 13.4788C10.6482 13.5887 10.4911 13.7438 10.3733 13.9442C10.262 14.1446 10.2064 14.3773 10.2064 14.6424L10.0787 13.5079C10.2489 13.1458 10.4944 12.8582 10.8151 12.6448C11.1358 12.425 11.5089 12.3151 11.9343 12.3151C12.4449 12.3151 12.8474 12.4606 13.1419 12.7515C13.4365 13.0359 13.5837 13.4044 13.5837 13.8569V17.3576H12.3369ZM15.7044 17.3576V14.1672C15.7044 13.8763 15.6324 13.663 15.4884 13.5272C15.3444 13.385 15.1383 13.3139 14.8699 13.3139C14.6277 13.3139 14.4085 13.3689 14.2121 13.4788C14.0157 13.5887 13.8619 13.7438 13.7507 13.9442C13.6394 14.1446 13.5837 14.3773 13.5837 14.6424L13.3677 13.5079C13.5314 13.1458 13.7801 12.8582 14.1139 12.6448C14.4477 12.425 14.8339 12.3151 15.2724 12.3151C15.7961 12.3151 16.2051 12.4638 16.4997 12.7612C16.8008 13.0521 16.9513 13.44 16.9513 13.9248V17.3576H15.7044Z" fill="#15E68F"/>
<path d="M21.069 17.4545C20.5912 17.4545 20.1985 17.3446 19.8909 17.1248C19.5898 16.8986 19.4032 16.5883 19.3312 16.1939L19.4196 16.1842V17.3576H18.212V10.3757H19.4491V13.5272L19.3607 13.5079C19.4458 13.1394 19.6454 12.8485 19.9596 12.6351C20.2803 12.4218 20.6763 12.3151 21.1476 12.3151C21.5926 12.3151 21.9788 12.4218 22.3061 12.6351C22.6399 12.842 22.8984 13.1361 23.0817 13.5175C23.265 13.899 23.3566 14.3483 23.3566 14.8654C23.3566 15.3891 23.2617 15.8448 23.0719 16.2327C22.8821 16.6206 22.617 16.9212 22.2766 17.1345C21.9363 17.3479 21.5337 17.4545 21.069 17.4545ZM20.7548 16.446C21.1541 16.446 21.4716 16.3103 21.7072 16.0388C21.9428 15.7608 22.0606 15.3729 22.0606 14.8751C22.0606 14.3773 21.9395 13.9927 21.6974 13.7212C21.4617 13.4497 21.1443 13.3139 20.745 13.3139C20.3523 13.3139 20.0349 13.4529 19.7927 13.7309C19.5505 14.0024 19.4294 14.387 19.4294 14.8848C19.4294 15.3826 19.5505 15.7672 19.7927 16.0388C20.0349 16.3103 20.3556 16.446 20.7548 16.446Z" fill="#15E68F"/>
<path d="M26.6253 17.4545C26.0951 17.4545 25.6304 17.3446 25.2311 17.1248C24.8384 16.905 24.5308 16.6012 24.3083 16.2133C24.0923 15.8254 23.9843 15.3794 23.9843 14.8751C23.9843 14.3709 24.0923 13.9281 24.3083 13.5466C24.5308 13.1588 24.8384 12.8582 25.2311 12.6448C25.6239 12.425 26.082 12.3151 26.6057 12.3151C27.1031 12.3151 27.5351 12.4186 27.9016 12.6254C28.2682 12.8258 28.5529 13.1103 28.7558 13.4788C28.9587 13.8472 29.0602 14.2771 29.0602 14.7685C29.0602 14.859 29.0569 14.943 29.0503 15.0206C29.0438 15.0982 29.034 15.1757 29.0209 15.2533H24.7501V14.4H28.0685L27.8133 14.6327C27.8133 14.1672 27.7053 13.8182 27.4893 13.5854C27.2733 13.3527 26.9722 13.2363 26.586 13.2363C26.1671 13.2363 25.8333 13.3786 25.5846 13.663C25.3424 13.9474 25.2213 14.358 25.2213 14.8945C25.2213 15.4246 25.3424 15.8319 25.5846 16.1163C25.8333 16.3943 26.1835 16.5333 26.6351 16.5333C26.8969 16.5333 27.126 16.4848 27.3224 16.3879C27.5187 16.2909 27.6627 16.1422 27.7544 15.9418H28.9227C28.7591 16.4072 28.4809 16.7757 28.0882 17.0472C27.702 17.3188 27.2144 17.4545 26.6253 17.4545Z" fill="#15E68F"/>
<path d="M29.9859 17.3576V12.4121H31.1935V13.6048H31.2229V17.3576H29.9859ZM31.2229 14.7782L31.0953 13.6048C31.2131 13.1846 31.4128 12.8646 31.6942 12.6448C31.9757 12.425 32.3127 12.3151 32.7055 12.3151C32.8429 12.3151 32.9411 12.3281 33 12.3539V13.5079C32.9673 13.4949 32.9215 13.4885 32.8625 13.4885C32.8036 13.482 32.7316 13.4788 32.6466 13.4788C32.1687 13.4788 31.812 13.5822 31.5764 13.7891C31.3408 13.9959 31.2229 14.3256 31.2229 14.7782Z" fill="#15E68F"/>
<path d="M6.61675 24.6303C6.58402 24.501 6.55784 24.3588 6.5382 24.2036C6.52511 24.0485 6.51857 23.861 6.51857 23.6412H6.4793V21.2945C6.4793 21.0359 6.40403 20.842 6.25348 20.7127C6.10949 20.577 5.88695 20.5091 5.58586 20.5091C5.29132 20.5091 5.05569 20.564 4.87897 20.6739C4.70879 20.7774 4.60407 20.9293 4.56479 21.1297H3.37682C3.42918 20.6707 3.65172 20.299 4.04444 20.0145C4.43716 19.7301 4.96406 19.5879 5.62513 19.5879C6.31239 19.5879 6.83274 19.743 7.18619 20.0533C7.53964 20.3572 7.71636 20.8064 7.71636 21.4012V23.6412C7.71636 23.7963 7.72618 23.9547 7.74581 24.1163C7.772 24.278 7.80799 24.4493 7.85381 24.6303H6.61675ZM4.87897 24.7273C4.37498 24.7273 3.97244 24.6044 3.67136 24.3588C3.37682 24.1067 3.22955 23.7705 3.22955 23.3503C3.22955 22.8978 3.39646 22.539 3.73027 22.2739C4.06408 22.0089 4.53534 21.8311 5.14405 21.7406L6.70511 21.5079V22.2836L5.35023 22.4873C5.05569 22.5325 4.83315 22.6133 4.68261 22.7297C4.53861 22.846 4.46661 23.0077 4.46661 23.2145C4.46661 23.402 4.53534 23.5475 4.67279 23.6509C4.81024 23.7479 5.00006 23.7963 5.24223 23.7963C5.59568 23.7963 5.89022 23.7091 6.12585 23.5345C6.36148 23.36 6.4793 23.1467 6.4793 22.8945L6.61675 23.6412C6.48584 23.9968 6.26985 24.2683 5.96876 24.4557C5.67422 24.6368 5.31096 24.7273 4.87897 24.7273Z" fill="#15E68F"/>
<path d="M8.9693 24.6303V19.6848H10.1769V20.8485H10.2064V24.6303H8.9693ZM12.3369 24.6303V21.44C12.3369 21.1491 12.2616 20.9357 12.1111 20.8C11.9671 20.6578 11.7609 20.5866 11.4925 20.5866C11.2569 20.5866 11.0409 20.6416 10.8445 20.7515C10.6482 20.8614 10.4911 21.0165 10.3733 21.217C10.262 21.4174 10.2064 21.6501 10.2064 21.9151L10.0787 20.7806C10.2489 20.4186 10.4944 20.1309 10.8151 19.9176C11.1358 19.6978 11.5089 19.5879 11.9343 19.5879C12.4449 19.5879 12.8474 19.7333 13.1419 20.0242C13.4365 20.3087 13.5837 20.6772 13.5837 21.1297V24.6303H12.3369ZM15.7044 24.6303V21.44C15.7044 21.1491 15.6324 20.9357 15.4884 20.8C15.3444 20.6578 15.1383 20.5866 14.8699 20.5866C14.6277 20.5866 14.4085 20.6416 14.2121 20.7515C14.0157 20.8614 13.8619 21.0165 13.7507 21.217C13.6394 21.4174 13.5837 21.6501 13.5837 21.9151L13.3677 20.7806C13.5314 20.4186 13.7801 20.1309 14.1139 19.9176C14.4477 19.6978 14.8339 19.5879 15.2724 19.5879C15.7961 19.5879 16.2051 19.7365 16.4997 20.0339C16.8008 20.3248 16.9513 20.7127 16.9513 21.1976V24.6303H15.7044Z" fill="#15E68F"/>
<path d="M21.069 24.7273C20.5912 24.7273 20.1985 24.6174 19.8909 24.3976C19.5898 24.1713 19.4032 23.861 19.3312 23.4667L19.4196 23.457V24.6303H18.212V17.6485H19.4491V20.8L19.3607 20.7806C19.4458 20.4121 19.6454 20.1212 19.9596 19.9079C20.2803 19.6945 20.6763 19.5879 21.1476 19.5879C21.5926 19.5879 21.9788 19.6945 22.3061 19.9079C22.6399 20.1147 22.8984 20.4089 23.0817 20.7903C23.265 21.1717 23.3566 21.621 23.3566 22.1382C23.3566 22.6618 23.2617 23.1176 23.0719 23.5054C22.8821 23.8933 22.617 24.1939 22.2766 24.4073C21.9363 24.6206 21.5337 24.7273 21.069 24.7273ZM20.7548 23.7188C21.1541 23.7188 21.4716 23.583 21.7072 23.3115C21.9428 23.0335 22.0606 22.6456 22.0606 22.1479C22.0606 21.6501 21.9395 21.2654 21.6974 20.9939C21.4617 20.7224 21.1443 20.5866 20.745 20.5866C20.3523 20.5866 20.0349 20.7256 19.7927 21.0036C19.5505 21.2751 19.4294 21.6598 19.4294 22.1576C19.4294 22.6553 19.5505 23.04 19.7927 23.3115C20.0349 23.583 20.3556 23.7188 20.7548 23.7188Z" fill="#15E68F"/>
<path d="M26.6253 24.7273C26.0951 24.7273 25.6304 24.6174 25.2311 24.3976C24.8384 24.1778 24.5308 23.8739 24.3083 23.486C24.0923 23.0982 23.9843 22.6521 23.9843 22.1479C23.9843 21.6436 24.0923 21.2008 24.3083 20.8194C24.5308 20.4315 24.8384 20.1309 25.2311 19.9176C25.6239 19.6978 26.082 19.5879 26.6057 19.5879C27.1031 19.5879 27.5351 19.6913 27.9016 19.8982C28.2682 20.0986 28.5529 20.383 28.7558 20.7515C28.9587 21.12 29.0602 21.5499 29.0602 22.0412C29.0602 22.1317 29.0569 22.2157 29.0503 22.2933C29.0438 22.3709 29.034 22.4485 29.0209 22.526H24.7501V21.6727H28.0685L27.8133 21.9054C27.8133 21.44 27.7053 21.0909 27.4893 20.8582C27.2733 20.6254 26.9722 20.5091 26.586 20.5091C26.1671 20.5091 25.8333 20.6513 25.5846 20.9357C25.3424 21.2202 25.2213 21.6307 25.2213 22.1673C25.2213 22.6974 25.3424 23.1046 25.5846 23.3891C25.8333 23.6671 26.1835 23.806 26.6351 23.806C26.8969 23.806 27.126 23.7576 27.3224 23.6606C27.5187 23.5636 27.6627 23.4149 27.7544 23.2145H28.9227C28.7591 23.68 28.4809 24.0485 28.0882 24.32C27.702 24.5915 27.2144 24.7273 26.6253 24.7273Z" fill="#15E68F"/>
<path d="M29.9859 24.6303V19.6848H31.1935V20.8776H31.2229V24.6303H29.9859ZM31.2229 22.0509L31.0953 20.8776C31.2131 20.4574 31.4128 20.1374 31.6942 19.9176C31.9757 19.6978 32.3127 19.5879 32.7055 19.5879C32.8429 19.5879 32.9411 19.6008 33 19.6266V20.7806C32.9673 20.7677 32.9215 20.7612 32.8625 20.7612C32.8036 20.7547 32.7316 20.7515 32.6466 20.7515C32.1687 20.7515 31.812 20.8549 31.5764 21.0618C31.3408 21.2687 31.2229 21.5984 31.2229 22.0509Z" fill="#15E68F"/>
<path d="M6.61675 31.903C6.58402 31.7737 6.55784 31.6315 6.5382 31.4764C6.52511 31.3212 6.51857 31.1337 6.51857 30.9139H6.4793V28.5673C6.4793 28.3087 6.40403 28.1147 6.25348 27.9854C6.10949 27.8497 5.88695 27.7818 5.58586 27.7818C5.29132 27.7818 5.05569 27.8368 4.87897 27.9467C4.70879 28.0501 4.60407 28.202 4.56479 28.4024H3.37682C3.42918 27.9434 3.65172 27.5717 4.04444 27.2873C4.43716 27.0028 4.96406 26.8606 5.62513 26.8606C6.31239 26.8606 6.83274 27.0157 7.18619 27.3261C7.53964 27.6299 7.71636 28.0792 7.71636 28.6739V30.9139C7.71636 31.0691 7.72618 31.2275 7.74581 31.3891C7.772 31.5507 7.80799 31.722 7.85381 31.903H6.61675ZM4.87897 32C4.37498 32 3.97244 31.8772 3.67136 31.6315C3.37682 31.3794 3.22955 31.0432 3.22955 30.623C3.22955 30.1705 3.39646 29.8117 3.73027 29.5467C4.06408 29.2816 4.53534 29.1038 5.14405 29.0133L6.70511 28.7806V29.5564L5.35023 29.76C5.05569 29.8052 4.83315 29.8861 4.68261 30.0024C4.53861 30.1188 4.46661 30.2804 4.46661 30.4873C4.46661 30.6747 4.53534 30.8202 4.67279 30.9236C4.81024 31.0206 5.00006 31.0691 5.24223 31.0691C5.59568 31.0691 5.89022 30.9818 6.12585 30.8073C6.36148 30.6327 6.4793 30.4194 6.4793 30.1673L6.61675 30.9139C6.48584 31.2695 6.26985 31.541 5.96876 31.7285C5.67422 31.9095 5.31096 32 4.87897 32Z" fill="#15E68F"/>
<path d="M8.9693 31.903V26.9576H10.1769V28.1212H10.2064V31.903H8.9693ZM12.3369 31.903V28.7127C12.3369 28.4218 12.2616 28.2085 12.1111 28.0727C11.9671 27.9305 11.7609 27.8594 11.4925 27.8594C11.2569 27.8594 11.0409 27.9143 10.8445 28.0242C10.6482 28.1341 10.4911 28.2893 10.3733 28.4897C10.262 28.6901 10.2064 28.9228 10.2064 29.1879L10.0787 28.0533C10.2489 27.6913 10.4944 27.4036 10.8151 27.1903C11.1358 26.9705 11.5089 26.8606 11.9343 26.8606C12.4449 26.8606 12.8474 27.0061 13.1419 27.297C13.4365 27.5814 13.5837 27.9499 13.5837 28.4024V31.903H12.3369ZM15.7044 31.903V28.7127C15.7044 28.4218 15.6324 28.2085 15.4884 28.0727C15.3444 27.9305 15.1383 27.8594 14.8699 27.8594C14.6277 27.8594 14.4085 27.9143 14.2121 28.0242C14.0157 28.1341 13.8619 28.2893 13.7507 28.4897C13.6394 28.6901 13.5837 28.9228 13.5837 29.1879L13.3677 28.0533C13.5314 27.6913 13.7801 27.4036 14.1139 27.1903C14.4477 26.9705 14.8339 26.8606 15.2724 26.8606C15.7961 26.8606 16.2051 27.0093 16.4997 27.3067C16.8008 27.5976 16.9513 27.9854 16.9513 28.4703V31.903H15.7044Z" fill="#15E68F"/>
<path d="M21.069 32C20.5912 32 20.1985 31.8901 19.8909 31.6703C19.5898 31.444 19.4032 31.1337 19.3312 30.7394L19.4196 30.7297V31.903H18.212V24.9212H19.4491V28.0727L19.3607 28.0533C19.4458 27.6848 19.6454 27.3939 19.9596 27.1806C20.2803 26.9673 20.6763 26.8606 21.1476 26.8606C21.5926 26.8606 21.9788 26.9673 22.3061 27.1806C22.6399 27.3875 22.8984 27.6816 23.0817 28.063C23.265 28.4444 23.3566 28.8937 23.3566 29.4109C23.3566 29.9345 23.2617 30.3903 23.0719 30.7782C22.8821 31.1661 22.617 31.4667 22.2766 31.68C21.9363 31.8933 21.5337 32 21.069 32ZM20.7548 30.9915C21.1541 30.9915 21.4716 30.8558 21.7072 30.5842C21.9428 30.3063 22.0606 29.9184 22.0606 29.4206C22.0606 28.9228 21.9395 28.5382 21.6974 28.2667C21.4617 27.9951 21.1443 27.8594 20.745 27.8594C20.3523 27.8594 20.0349 27.9984 19.7927 28.2764C19.5505 28.5479 19.4294 28.9325 19.4294 29.4303C19.4294 29.9281 19.5505 30.3127 19.7927 30.5842C20.0349 30.8558 20.3556 30.9915 20.7548 30.9915Z" fill="#15E68F"/>
<path d="M26.6253 32C26.0951 32 25.6304 31.8901 25.2311 31.6703C24.8384 31.4505 24.5308 31.1467 24.3083 30.7588C24.0923 30.3709 23.9843 29.9248 23.9843 29.4206C23.9843 28.9164 24.0923 28.4735 24.3083 28.0921C24.5308 27.7042 24.8384 27.4036 25.2311 27.1903C25.6239 26.9705 26.082 26.8606 26.6057 26.8606C27.1031 26.8606 27.5351 26.964 27.9016 27.1709C28.2682 27.3713 28.5529 27.6557 28.7558 28.0242C28.9587 28.3927 29.0602 28.8226 29.0602 29.3139C29.0602 29.4044 29.0569 29.4885 29.0503 29.5661C29.0438 29.6436 29.034 29.7212 29.0209 29.7988H24.7501V28.9454H28.0685L27.8133 29.1782C27.8133 28.7127 27.7053 28.3636 27.4893 28.1309C27.2733 27.8982 26.9722 27.7818 26.586 27.7818C26.1671 27.7818 25.8333 27.924 25.5846 28.2085C25.3424 28.4929 25.2213 28.9034 25.2213 29.44C25.2213 29.9701 25.3424 30.3774 25.5846 30.6618C25.8333 30.9398 26.1835 31.0788 26.6351 31.0788C26.8969 31.0788 27.126 31.0303 27.3224 30.9333C27.5187 30.8364 27.6627 30.6877 27.7544 30.4873H28.9227C28.7591 30.9527 28.4809 31.3212 28.0882 31.5927C27.702 31.8642 27.2144 32 26.6253 32Z" fill="#15E68F"/>
<path d="M29.9859 31.903V26.9576H31.1935V28.1503H31.2229V31.903H29.9859ZM31.2229 29.3236L31.0953 28.1503C31.2131 27.7301 31.4128 27.4101 31.6942 27.1903C31.9757 26.9705 32.3127 26.8606 32.7055 26.8606C32.8429 26.8606 32.9411 26.8735 33 26.8994V28.0533C32.9673 28.0404 32.9215 28.0339 32.8625 28.0339C32.8036 28.0275 32.7316 28.0242 32.6466 28.0242C32.1687 28.0242 31.812 28.1277 31.5764 28.3345C31.3408 28.5414 31.2229 28.8711 31.2229 29.3236Z" fill="#15E68F"/>
<path d="M20.5579 26.9338C20.419 26.3849 20.3078 25.7811 20.2244 25.1225C20.1688 24.4638 20.141 23.6679 20.141 22.7348H19.9743V12.7725C19.9743 11.6748 19.6547 10.8514 19.0154 10.3025C18.404 9.72621 17.459 9.43804 16.1805 9.43804C14.9298 9.43804 13.9293 9.67132 13.1788 10.1379C12.4562 10.577 12.0115 11.2219 11.8448 12.0727H6.80029C7.02263 10.1242 7.9676 8.54611 9.6352 7.33856C11.3028 6.13101 13.5402 5.52723 16.3473 5.52723C19.2656 5.52723 21.4751 6.1859 22.976 7.50322C24.4768 8.7931 25.2272 10.7005 25.2272 13.2254V22.7348C25.2272 23.3935 25.2689 24.0659 25.3523 24.752C25.4635 25.4381 25.6163 26.1653 25.8109 26.9338H20.5579ZM13.1788 27.3454C11.0388 27.3454 9.32947 26.824 8.05098 25.7811C6.80029 24.7108 6.17494 23.2837 6.17494 21.4998C6.17494 19.5787 6.88367 18.0556 8.30112 16.9303C9.71858 15.8051 11.7197 15.0504 14.3045 14.6662L20.9332 13.6782V16.9715L15.18 17.836C13.9293 18.0281 12.9843 18.3712 12.345 18.8652C11.7336 19.3592 11.4279 20.0453 11.4279 20.9235C11.4279 21.7194 11.7197 22.3369 12.3034 22.776C12.887 23.1876 13.693 23.3935 14.7214 23.3935C16.2222 23.3935 17.4729 23.023 18.4735 22.282C19.474 21.541 19.9743 20.6353 19.9743 19.565L20.5579 22.7348C20.0021 24.2442 19.0849 25.3969 17.8064 26.1928C16.5557 26.9612 15.0132 27.3454 13.1788 27.3454Z" fill="#1E1E1E" fill-opacity="0.67"/>
<path d="M21.0488 27.4186C20.9099 26.8697 20.7987 26.266 20.7153 25.6073C20.6597 24.9486 20.6319 24.1528 20.6319 23.2197H20.4652V13.2574C20.4652 12.1596 20.1456 11.3363 19.5063 10.7874C18.8949 10.2111 17.9499 9.92289 16.6714 9.92289C15.4207 9.92289 14.4202 10.1562 13.6697 10.6227C12.9471 11.0618 12.5024 11.7068 12.3357 12.5575H7.29119C7.51353 10.609 8.4585 9.03096 10.1261 7.82341C11.7937 6.61586 14.031 6.01208 16.8382 6.01208C19.7565 6.01208 21.966 6.67075 23.4669 7.98807C24.9677 9.27795 25.7181 11.1853 25.7181 13.7102V23.2197C25.7181 23.8783 25.7598 24.5507 25.8432 25.2368C25.9544 25.9229 26.1072 26.6502 26.3018 27.4186H21.0488ZM13.6697 27.8303C11.5297 27.8303 9.82037 27.3089 8.54188 26.266C7.29119 25.1956 6.66584 23.7685 6.66584 21.9847C6.66584 20.0636 7.37457 18.5404 8.79202 17.4152C10.2095 16.29 12.2106 15.5353 14.7954 15.151L21.4241 14.163V17.4564L15.6709 18.3208C14.4202 18.513 13.4752 18.856 12.8359 19.35C12.2245 19.844 11.9188 20.5301 11.9188 21.4083C11.9188 22.2042 12.2106 22.8217 12.7942 23.2608C13.3779 23.6725 14.1839 23.8783 15.2123 23.8783C16.7131 23.8783 17.9638 23.5078 18.9644 22.7668C19.9649 22.0258 20.4652 21.1202 20.4652 20.0498L21.0488 23.2197C20.493 24.7291 19.5758 25.8817 18.2973 26.6776C17.0466 27.4461 15.5041 27.8303 13.6697 27.8303Z" fill="#1E1E1E"/>
</g>
<defs>
<clipPath id="clip0_99_2">
<rect width="31.88" height="32" fill="white"/>
</clipPath>
</defs>
</svg>
