<svg width="18" height="18" viewBox="0 0 18 18" fill="none" xmlns="http://www.w3.org/2000/svg">
<path d="M9.21258 4.6813L1 12.8938V17H5.10629L13.3189 8.78752M9.21258 4.6813L12.1574 1.73645L12.1593 1.7347C12.5646 1.32934 12.7676 1.12629 13.0017 1.05024C13.2079 0.983252 13.43 0.983252 13.6362 1.05024C13.87 1.12624 14.0729 1.32905 14.4777 1.73384L16.2637 3.51985C16.6702 3.92639 16.8736 4.12975 16.9498 4.36415C17.0168 4.57032 17.0167 4.79241 16.9498 4.99859C16.8737 5.23281 16.6706 5.43586 16.2646 5.84182L16.2637 5.84269L13.3189 8.78752M9.21258 4.6813L13.3189 8.78752" stroke="white" stroke-width="1.5" stroke-linecap="round" stroke-linejoin="round"/>
</svg>
