<svg width="39" height="39" viewBox="0 0 39 39" fill="none" xmlns="http://www.w3.org/2000/svg">
<path d="M17.65 25.05H21.35V28.75H17.65V25.05ZM17.65 10.25H21.35V21.35H17.65V10.25ZM19.4815 1C9.2695 1 1 9.288 1 19.5C1 29.712 9.2695 38 19.4815 38C29.712 38 38 29.712 38 19.5C38 9.288 29.712 1 19.4815 1ZM19.5 34.3C11.323 34.3 4.7 27.677 4.7 19.5C4.7 11.323 11.323 4.7 19.5 4.7C27.677 4.7 34.3 11.323 34.3 19.5C34.3 27.677 27.677 34.3 19.5 34.3Z" fill="#FF156D"/>
<path d="M19.4814 0.5C29.9878 0.5 38.5 9.01153 38.5 19.5C38.5 29.9885 29.9878 38.5 19.4814 38.5C8.99268 38.5 0.5 29.9875 0.5 19.5C0.5 9.01253 8.99268 0.500029 19.4814 0.5ZM19.5 5.2002C11.5991 5.2002 5.2002 11.5991 5.2002 19.5C5.2002 27.4009 11.5991 33.7998 19.5 33.7998C27.4009 33.7998 33.7998 27.4009 33.7998 19.5C33.7998 11.5991 27.4009 5.2002 19.5 5.2002ZM21.8496 24.5498V29.25H17.1504V24.5498H21.8496ZM21.8496 9.75V21.8496H17.1504V9.75H21.8496Z" stroke="#FF156D" stroke-opacity="0.23"/>
</svg>
