<svg width="15" height="15" viewBox="0 0 15 15" fill="none" xmlns="http://www.w3.org/2000/svg">
<path d="M2.1967 2.1967C1.22074 3.17265 0.533024 4.399 0.209263 5.7407C-0.114499 7.0824 -0.0617453 8.48742 0.361715 9.80106C0.785175 11.1147 1.56292 12.286 2.60931 13.186C3.6557 14.0861 4.93016 14.6799 6.29236 14.9021C7.65456 15.1244 9.05167 14.9664 10.3299 14.4456C11.6081 13.9249 12.7178 13.0615 13.5368 11.9505C14.3558 10.8396 14.8524 9.5242 14.9719 8.14917C15.0913 6.77414 14.829 5.39281 14.2139 4.15727L12.672 4.92495C13.1459 5.87674 13.3479 6.94084 13.2559 8.00009C13.1639 9.05933 12.7813 10.0726 12.1504 10.9284C11.5195 11.7842 10.6646 12.4493 9.67997 12.8505C8.69532 13.2517 7.61907 13.3734 6.5697 13.2022C5.52034 13.031 4.53857 12.5735 3.73249 11.8802C2.92641 11.1869 2.32728 10.2846 2.00107 9.27261C1.67486 8.26065 1.63422 7.1783 1.88363 6.14473C2.13304 5.11116 2.66282 4.16646 3.41464 3.41464L2.1967 2.1967Z" fill="white"/>
</svg>
