<svg width="17" height="16" viewBox="0 0 17 16" fill="none" xmlns="http://www.w3.org/2000/svg">
<path d="M5.32324 8.52943C5.48278 8.37231 5.75062 8.36496 5.91992 8.51185L6.71484 9.2013C6.7999 9.27515 6.8012 9.39574 6.7168 9.47084L4.52441 11.424C4.55593 11.424 7.21137 11.4263 9.47559 11.4279L10.8994 12.9533C8.15921 12.9569 4.61348 12.9707 4.59277 12.9708L6.68945 14.9161C6.70874 14.9339 6.72401 14.9551 6.73438 14.9786C6.74479 15.0024 6.75033 15.0281 6.75 15.0538C6.74963 15.0795 6.74341 15.1047 6.73242 15.1281C6.7214 15.1515 6.70541 15.1723 6.68555 15.1896L5.89844 15.8917C5.81708 15.9637 5.70936 16.0028 5.59863 16.0001C5.48777 15.9973 5.38203 15.9531 5.30469 15.8771L1.88574 12.4884C1.72614 12.3302 1.72601 12.0745 1.88574 11.9171L5.32324 8.52943Z" fill="white"/>
<path d="M15.8105 5.01966C15.8899 4.94076 15.9942 4.95681 16.043 5.0558C16.0496 5.06865 16.9997 6.91202 17 7.89369C17 10.179 15.4786 12.1163 13.3975 12.7394L12.1689 11.423C14.0143 11.3084 15.4453 9.68331 15.4453 7.98158C15.4451 7.26674 14.8696 6.23468 14.8662 6.22865C14.8145 6.13035 14.8377 5.9864 14.916 5.90834L15.8105 5.01966Z" fill="white"/>
<path d="M3.44922 4.97084C2.31846 5.57347 1.55469 6.77567 1.55469 8.01869C1.55473 8.72946 2.12398 9.75402 2.13379 9.77162C2.18551 9.87001 2.16251 10.0149 2.08398 10.0929L1.18945 10.9816C1.11014 11.0601 1.00578 11.0433 0.957031 10.9445C0.943674 10.9185 0.000142323 9.08474 0 8.10658C0 6.30123 0.949363 4.71246 2.37402 3.81752L3.44922 4.97084Z" fill="white"/>
<path d="M11.4014 0.00013233C11.5122 0.00295268 11.618 0.0471977 11.6953 0.123179L15.1143 3.51185C15.2739 3.67007 15.274 3.92572 15.1143 4.08314L11.6768 7.47084C11.5172 7.62796 11.2494 7.63627 11.0801 7.48939L10.2852 6.79896C10.2003 6.72513 10.199 6.60549 10.2832 6.53041L12.4756 4.5763C12.4351 4.57621 8.08802 4.56809 5.77441 4.57045L4.39453 3.09193C4.60626 3.0646 4.82199 3.04994 5.04102 3.04994C7.81432 3.04994 12.3839 3.02953 12.4072 3.02943L10.3105 1.08509C10.2911 1.06732 10.276 1.04534 10.2656 1.02162C10.2553 0.998079 10.2497 0.972915 10.25 0.947398C10.2503 0.921669 10.2566 0.895671 10.2676 0.872203C10.2786 0.848838 10.2946 0.82793 10.3145 0.810679L11.1016 0.108531C11.1829 0.0366044 11.2906 -0.00258355 11.4014 0.00013233Z" fill="white"/>
<path d="M0.745037 0.62714C0.962435 0.424245 1.30315 0.436002 1.50605 0.653401L14.9526 15.0612C15.1555 15.2786 15.1438 15.6193 14.9264 15.8222C14.709 16.0251 14.3683 16.0133 14.1654 15.7959L0.718776 1.38815C0.51588 1.17075 0.527638 0.830036 0.745037 0.62714Z" fill="white"/>
</svg>
