<svg width="17" height="16" viewBox="0 0 17 16" fill="none" xmlns="http://www.w3.org/2000/svg">
<path fill-rule="evenodd" clip-rule="evenodd" d="M6.68934 14.9154C6.70878 14.9332 6.72419 14.9546 6.73461 14.9783C6.74503 15.002 6.75023 15.0276 6.7499 15.0533C6.74957 15.079 6.74371 15.1044 6.73268 15.1279C6.72166 15.1513 6.7057 15.1724 6.68581 15.1897L5.89819 15.8919C5.81673 15.964 5.70909 16.0027 5.59823 15.9999C5.48736 15.997 5.38203 15.9529 5.30469 15.8768L1.8856 12.4884C1.72596 12.3302 1.72564 12.0747 1.88539 11.9173L5.32339 8.52916C5.48293 8.37204 5.75028 8.36439 5.91958 8.51127L6.71468 9.20099C6.79985 9.27483 6.8012 9.39499 6.71676 9.47012L4.52413 11.4239C4.52413 11.4239 10.0328 11.4367 11.9722 11.4302C13.9116 11.4239 15.4452 9.74342 15.4452 7.98166C15.4452 7.26472 14.8658 6.22855 14.8658 6.22855C14.8141 6.13016 14.8375 5.98566 14.916 5.90764L15.8103 5.01916C15.8897 4.94025 15.9944 4.95635 16.0432 5.05534C16.0432 5.05534 17 6.90893 17 7.89391C17 10.6801 14.7393 12.9507 11.959 12.9507C9.17862 12.9507 4.59268 12.9707 4.59268 12.9707L6.68934 14.9154Z" fill="white"/>
<path fill-rule="evenodd" clip-rule="evenodd" d="M10.3107 1.0846C10.2912 1.06682 10.2758 1.0454 10.2654 1.02168C10.255 0.997961 10.2498 0.972443 10.2501 0.946714C10.2504 0.920985 10.2563 0.895597 10.2673 0.872129C10.2783 0.848661 10.2943 0.827615 10.3142 0.8103L11.1018 0.108062C11.1833 0.0360461 11.2909 -0.0026778 11.4018 0.000144076C11.5126 0.00296595 11.618 0.0471105 11.6953 0.123168L15.1144 3.51162C15.274 3.66984 15.2744 3.92526 15.1146 4.08268L11.6766 7.47084C11.5171 7.62796 11.2497 7.63561 11.0804 7.48873L10.2852 6.79901C10.2001 6.72517 10.1988 6.60501 10.2831 6.52988L12.4759 4.57611C12.4759 4.57611 6.96719 4.56329 5.02778 4.56975C3.08838 4.57611 1.55478 6.25658 1.55478 8.01834C1.55478 8.73528 2.13415 9.77145 2.13415 9.77145C2.18588 9.86984 2.16251 10.0143 2.08399 10.0924L1.18969 10.9808C1.11034 11.0597 1.00564 11.0436 0.956822 10.9447C0.956822 10.9447 0 9.09117 0 8.10609C0 5.31989 2.26066 3.0493 5.04097 3.0493C7.82139 3.0493 12.4073 3.02932 12.4073 3.02932L10.3107 1.0846Z" fill="white"/>
</svg>
