<svg width="17" height="16" viewBox="0 0 17 16" fill="none" xmlns="http://www.w3.org/2000/svg">
<path fill-rule="evenodd" clip-rule="evenodd" d="M0.0603841 2.31161L3.90501 2.3104C4.13844 2.3104 4.44652 2.45013 4.59338 2.62317L6.9712 5.42408L5.8128 6.57753C5.73225 6.65777 5.60914 6.65155 5.5384 6.56439L3.71518 4.31878C3.64423 4.23131 3.4922 4.16059 3.37627 4.16079L0.263939 4.16631C0.236317 4.16639 0.208953 4.16127 0.183428 4.15124C0.157902 4.14122 0.134721 4.12648 0.115224 4.10789C0.095727 4.0893 0.0803008 4.06723 0.069837 4.04294C0.0593731 4.01865 0.0540792 3.99264 0.0542607 3.9664L0.0603841 2.31161Z" fill="white"/>
<path fill-rule="evenodd" clip-rule="evenodd" d="M0.206821 11.8271C0.179414 11.8263 0.152135 11.8309 0.126662 11.8405C0.101189 11.8502 0.078059 11.8647 0.0586962 11.8831C0.0393334 11.9015 0.0241464 11.9236 0.0140693 11.9478C0.00399215 11.972 -0.000761876 11.9979 9.91574e-05 12.024L0.032089 13.4337C0.0336434 13.4875 0.0568822 13.5387 0.097004 13.5766C0.137126 13.6146 0.191066 13.6365 0.24768 13.6377L3.84177 13.6929C4.0753 13.6964 4.38444 13.5605 4.53267 13.389L12.3563 4.33212H13.99L11.6563 7.03343H13.6729C13.8481 7.03343 14.0848 6.93432 14.2035 6.81014L16.6845 4.21516C17.1159 3.76407 17.1034 3.04426 16.6562 2.60692L14.2849 0.288287C14.122 0.129097 13.801 0 13.5674 0H11.9735C11.7983 0 11.7522 0.0980013 11.8717 0.220177L13.99 2.38554H11.9729C11.7397 2.38554 11.4313 2.52537 11.2842 2.6976L3.56663 11.7319C3.49346 11.8175 3.33858 11.8851 3.22297 11.883L0.206821 11.8272V11.8271Z" fill="white"/>
<path fill-rule="evenodd" clip-rule="evenodd" d="M9.81526 9.16819C9.96846 9.00138 10.208 9.0091 10.3502 9.18494L12.3563 11.668H13.99L11.8813 8.96657H13.6744C13.8487 8.96657 14.0837 9.06758 14.1996 9.19257L16.5921 11.7734C17.0162 12.2308 17.0041 12.9606 16.5635 13.4049L14.2803 15.7073C14.12 15.869 13.801 16 13.5684 16H12.197C12.0228 16 11.9706 15.8948 12.0798 15.7662L13.99 13.5142H11.8683C11.6347 13.5142 11.3243 13.3748 11.1771 13.2052L8.84807 10.522C8.77374 10.4364 8.77627 10.2987 8.85208 10.2162L9.81526 9.16819Z" fill="white"/>
</svg>
