<svg width="285" height="284" viewBox="0 0 285 284" fill="none" xmlns="http://www.w3.org/2000/svg">
<path d="M59.3112 116.336C62.2381 116.336 64.2409 114.524 64.5485 111.808C70.0948 71.5082 71.481 71.5082 114 63.5093C116.773 63.0559 118.776 61.245 118.776 58.3774C118.776 55.6604 116.773 53.6982 114 53.2455C71.481 47.5102 69.9403 46.1513 64.5485 5.09747C64.2409 2.38115 62.2381 0.418945 59.3112 0.418945C56.538 0.418945 54.5353 2.38116 54.227 5.24881C49.1435 45.6986 46.9862 45.5479 4.77592 53.2455C2.00278 53.8495 0 55.6604 0 58.3774C0 61.3957 2.00278 63.0559 5.39181 63.5093C47.2945 70.15 49.1435 71.2068 54.227 111.506C54.5353 114.524 56.538 116.336 59.3112 116.336ZM163.76 283.419C167.765 283.419 170.692 280.551 171.462 276.476C182.4 193.764 194.262 181.237 277.759 172.181C282.073 171.728 285 168.558 285 164.634C285 160.71 282.073 157.691 277.759 157.088C194.262 148.031 182.4 135.504 171.462 52.7927C170.692 48.7176 167.765 46.0007 163.76 46.0007C159.754 46.0007 156.827 48.7176 156.211 52.7927C145.273 135.504 133.257 148.031 49.9132 157.088C45.4462 157.691 42.5192 160.71 42.5192 164.634C42.5192 168.558 45.4462 171.728 49.9132 172.181C133.103 182.897 144.657 193.916 156.211 276.476C156.827 280.551 159.754 283.419 163.76 283.419Z" fill="white"/>
</svg>
