<svg width="85" height="11" viewBox="0 0 85 11" fill="none" xmlns="http://www.w3.org/2000/svg">
<path d="M39.2451 5.79603C38.6723 11.5213 30.3277 11.5213 29.7549 5.79603C29.4225 2.47176 24.5775 2.47176 24.2451 5.79603C24.0018 8.22842 22.3002 9.65769 20.4277 10.005C18.6063 10.3427 16.509 9.67254 15.4219 7.86439C14.8773 6.95868 14.4146 6.38416 13.8496 6.19544L10 6.19544L10 4.19544L13.9277 4.19544C14.0686 4.19544 14.2093 4.21531 14.3447 4.25404C15.7833 4.66549 16.6106 5.96065 17.1357 6.83412C17.7205 7.80655 18.9145 8.25134 20.0635 8.03822C21.1615 7.83449 22.1098 7.04694 22.2549 5.59681C22.8274 -0.128786 31.1726 -0.128786 31.7451 5.59681C32.0776 8.92101 36.9224 8.92101 37.2549 5.59681C37.8274 -0.128785 46.1726 -0.128784 46.7451 5.59681C47.0776 8.92101 51.9224 8.92101 52.2549 5.59681C52.8274 -0.128781 61.1726 -0.128786 61.7451 5.59682C62.0776 8.92101 66.9224 8.92101 67.2549 5.59682C67.8274 -0.128783 76.1726 -0.128782 76.7451 5.59682C77.0776 8.92098 82.1675 8.32421 82.5 5L84.5 5C83.9272 10.7252 75.3277 11.5213 74.7549 5.79603C74.4225 2.47176 69.5775 2.47176 69.2451 5.79603C68.6723 11.5213 60.3277 11.5213 59.7549 5.79603C59.4225 2.47176 54.5775 2.47176 54.2451 5.79603C53.6723 11.5213 45.3277 11.5213 44.7549 5.79603C44.4225 2.47176 39.5775 2.47176 39.2451 5.79603Z" fill="#D9D9D9"/>
<path d="M4.54262e-07 5.19593L10.5 -0.000222L10.5 10.3921L4.54262e-07 5.19593Z" fill="#D9D9D9"/>
</svg>
